<svg width="403" height="92" viewBox="0 0 403 92" fill="none" xmlns="http://www.w3.org/2000/svg">
<rect width="403" height="92" rx="12" fill="#313131"/>
<circle cx="43" cy="46" r="8.5" stroke="white"/>
<circle cx="43.0001" cy="46.0001" r="5.4" fill="white"/>
<path d="M72.3223 38.7812V40.3242H65.4668V53H63.5918V38.7812H72.3223ZM65.0273 44.5723H68.9043C69.946 44.5723 70.8249 44.748 71.541 45.0996C72.2572 45.4447 72.8008 45.9297 73.1719 46.5547C73.543 47.1797 73.7285 47.9121 73.7285 48.752C73.7285 49.377 73.6243 49.9499 73.416 50.4707C73.2077 50.985 72.8984 51.4342 72.4883 51.8184C72.0781 52.196 71.5736 52.4889 70.9746 52.6973C70.3757 52.8991 69.6855 53 68.9043 53H63.5918V38.7812H65.4766V51.4668H68.9043C69.6009 51.4668 70.1641 51.3398 70.5938 51.0859C71.0299 50.8255 71.349 50.487 71.5508 50.0703C71.7526 49.6536 71.8535 49.2077 71.8535 48.7324C71.8535 48.2572 71.7526 47.821 71.5508 47.4238C71.349 47.0267 71.0299 46.7109 70.5938 46.4766C70.1641 46.2357 69.6009 46.1152 68.9043 46.1152H65.0273V44.5723ZM75.5156 47.834V47.6094C75.5156 46.8477 75.6263 46.1413 75.8477 45.4902C76.069 44.8327 76.388 44.263 76.8047 43.7812C77.2214 43.293 77.7259 42.9154 78.3184 42.6484C78.9108 42.375 79.5749 42.2383 80.3105 42.2383C81.0527 42.2383 81.7201 42.375 82.3125 42.6484C82.9115 42.9154 83.4193 43.293 83.8359 43.7812C84.2591 44.263 84.5814 44.8327 84.8027 45.4902C85.0241 46.1413 85.1348 46.8477 85.1348 47.6094V47.834C85.1348 48.5957 85.0241 49.3021 84.8027 49.9531C84.5814 50.6042 84.2591 51.1738 83.8359 51.6621C83.4193 52.1439 82.9147 52.5215 82.3223 52.7949C81.7363 53.0618 81.0723 53.1953 80.3301 53.1953C79.5879 53.1953 78.9206 53.0618 78.3281 52.7949C77.7357 52.5215 77.2279 52.1439 76.8047 51.6621C76.388 51.1738 76.069 50.6042 75.8477 49.9531C75.6263 49.3021 75.5156 48.5957 75.5156 47.834ZM77.3223 47.6094V47.834C77.3223 48.3613 77.3841 48.8594 77.5078 49.3281C77.6315 49.7904 77.8171 50.2005 78.0645 50.5586C78.3184 50.9167 78.6341 51.1999 79.0117 51.4082C79.3893 51.61 79.8288 51.7109 80.3301 51.7109C80.8249 51.7109 81.2578 51.61 81.6289 51.4082C82.0065 51.1999 82.319 50.9167 82.5664 50.5586C82.8138 50.2005 82.9993 49.7904 83.123 49.3281C83.2533 48.8594 83.3184 48.3613 83.3184 47.834V47.6094C83.3184 47.0885 83.2533 46.597 83.123 46.1348C82.9993 45.666 82.8105 45.2526 82.5566 44.8945C82.3092 44.5299 81.9967 44.2435 81.6191 44.0352C81.248 43.8268 80.8118 43.7227 80.3105 43.7227C79.8158 43.7227 79.3796 43.8268 79.002 44.0352C78.6309 44.2435 78.3184 44.5299 78.0645 44.8945C77.8171 45.2526 77.6315 45.666 77.5078 46.1348C77.3841 46.597 77.3223 47.0885 77.3223 47.6094ZM94.3047 42.4336V43.9277H89.1973V42.4336H94.3047ZM95.8965 42.4336V53H94.0898V42.4336H95.8965ZM88.7578 42.4336H90.5742L90.3008 47.5312C90.2552 48.319 90.1803 49.0156 90.0762 49.6211C89.9785 50.2201 89.8418 50.7344 89.666 51.1641C89.4967 51.5938 89.2819 51.9453 89.0215 52.2188C88.7676 52.4857 88.4616 52.6842 88.1035 52.8145C87.7454 52.9382 87.332 53 86.8633 53H86.2969V51.4082L86.6875 51.3789C86.9674 51.3594 87.2051 51.2943 87.4004 51.1836C87.6022 51.0729 87.7715 50.9102 87.9082 50.6953C88.0449 50.474 88.1556 50.1908 88.2402 49.8457C88.3314 49.5007 88.3997 49.0905 88.4453 48.6152C88.4974 48.14 88.5365 47.5866 88.5625 46.9551L88.7578 42.4336ZM103.191 53.1953C102.456 53.1953 101.788 53.0716 101.189 52.8242C100.597 52.5703 100.086 52.2155 99.6562 51.7598C99.2331 51.304 98.9076 50.7637 98.6797 50.1387C98.4518 49.5137 98.3379 48.8301 98.3379 48.0879V47.6777C98.3379 46.8184 98.4648 46.0534 98.7188 45.3828C98.9727 44.7057 99.3177 44.1328 99.7539 43.6641C100.19 43.1953 100.685 42.8405 101.238 42.5996C101.792 42.3587 102.365 42.2383 102.957 42.2383C103.712 42.2383 104.363 42.3685 104.91 42.6289C105.464 42.8893 105.916 43.2539 106.268 43.7227C106.619 44.1849 106.88 44.7318 107.049 45.3633C107.218 45.9883 107.303 46.6719 107.303 47.4141V48.2246H99.4121V46.75H105.496V46.6133C105.47 46.1445 105.372 45.6888 105.203 45.2461C105.04 44.8034 104.78 44.4388 104.422 44.1523C104.064 43.8659 103.576 43.7227 102.957 43.7227C102.547 43.7227 102.169 43.8105 101.824 43.9863C101.479 44.1556 101.183 44.4095 100.936 44.748C100.688 45.0866 100.496 45.5 100.359 45.9883C100.223 46.4766 100.154 47.0397 100.154 47.6777V48.0879C100.154 48.5892 100.223 49.0612 100.359 49.5039C100.503 49.9401 100.708 50.3242 100.975 50.6562C101.248 50.9883 101.577 51.2487 101.961 51.4375C102.352 51.6263 102.794 51.7207 103.289 51.7207C103.927 51.7207 104.467 51.5905 104.91 51.3301C105.353 51.0697 105.74 50.7214 106.072 50.2852L107.166 51.1543C106.938 51.4993 106.648 51.8281 106.297 52.1406C105.945 52.4531 105.512 52.707 104.998 52.9023C104.49 53.0977 103.888 53.1953 103.191 53.1953ZM113.797 53.1953C113.061 53.1953 112.394 53.0716 111.795 52.8242C111.202 52.5703 110.691 52.2155 110.262 51.7598C109.839 51.304 109.513 50.7637 109.285 50.1387C109.057 49.5137 108.943 48.8301 108.943 48.0879V47.6777C108.943 46.8184 109.07 46.0534 109.324 45.3828C109.578 44.7057 109.923 44.1328 110.359 43.6641C110.796 43.1953 111.29 42.8405 111.844 42.5996C112.397 42.3587 112.97 42.2383 113.562 42.2383C114.318 42.2383 114.969 42.3685 115.516 42.6289C116.069 42.8893 116.521 43.2539 116.873 43.7227C117.225 44.1849 117.485 44.7318 117.654 45.3633C117.824 45.9883 117.908 46.6719 117.908 47.4141V48.2246H110.018V46.75H116.102V46.6133C116.076 46.1445 115.978 45.6888 115.809 45.2461C115.646 44.8034 115.385 44.4388 115.027 44.1523C114.669 43.8659 114.181 43.7227 113.562 43.7227C113.152 43.7227 112.775 43.8105 112.43 43.9863C112.085 44.1556 111.788 44.4095 111.541 44.748C111.294 45.0866 111.102 45.5 110.965 45.9883C110.828 46.4766 110.76 47.0397 110.76 47.6777V48.0879C110.76 48.5892 110.828 49.0612 110.965 49.5039C111.108 49.9401 111.313 50.3242 111.58 50.6562C111.854 50.9883 112.182 51.2487 112.566 51.4375C112.957 51.6263 113.4 51.7207 113.895 51.7207C114.533 51.7207 115.073 51.5905 115.516 51.3301C115.958 51.0697 116.346 50.7214 116.678 50.2852L117.771 51.1543C117.544 51.4993 117.254 51.8281 116.902 52.1406C116.551 52.4531 116.118 52.707 115.604 52.9023C115.096 53.0977 114.493 53.1953 113.797 53.1953ZM132.146 47.0137V48.4785H126.561V47.0137H132.146ZM126.941 42.4336V53H125.135V42.4336H126.941ZM133.611 42.4336V53H131.795V42.4336H133.611ZM136.043 47.834V47.6094C136.043 46.8477 136.154 46.1413 136.375 45.4902C136.596 44.8327 136.915 44.263 137.332 43.7812C137.749 43.293 138.253 42.9154 138.846 42.6484C139.438 42.375 140.102 42.2383 140.838 42.2383C141.58 42.2383 142.247 42.375 142.84 42.6484C143.439 42.9154 143.947 43.293 144.363 43.7812C144.786 44.263 145.109 44.8327 145.33 45.4902C145.551 46.1413 145.662 46.8477 145.662 47.6094V47.834C145.662 48.5957 145.551 49.3021 145.33 49.9531C145.109 50.6042 144.786 51.1738 144.363 51.6621C143.947 52.1439 143.442 52.5215 142.85 52.7949C142.264 53.0618 141.6 53.1953 140.857 53.1953C140.115 53.1953 139.448 53.0618 138.855 52.7949C138.263 52.5215 137.755 52.1439 137.332 51.6621C136.915 51.1738 136.596 50.6042 136.375 49.9531C136.154 49.3021 136.043 48.5957 136.043 47.834ZM137.85 47.6094V47.834C137.85 48.3613 137.911 48.8594 138.035 49.3281C138.159 49.7904 138.344 50.2005 138.592 50.5586C138.846 50.9167 139.161 51.1999 139.539 51.4082C139.917 51.61 140.356 51.7109 140.857 51.7109C141.352 51.7109 141.785 51.61 142.156 51.4082C142.534 51.1999 142.846 50.9167 143.094 50.5586C143.341 50.2005 143.527 49.7904 143.65 49.3281C143.781 48.8594 143.846 48.3613 143.846 47.834V47.6094C143.846 47.0885 143.781 46.597 143.65 46.1348C143.527 45.666 143.338 45.2526 143.084 44.8945C142.837 44.5299 142.524 44.2435 142.146 44.0352C141.775 43.8268 141.339 43.7227 140.838 43.7227C140.343 43.7227 139.907 43.8268 139.529 44.0352C139.158 44.2435 138.846 44.5299 138.592 44.8945C138.344 45.2526 138.159 45.666 138.035 46.1348C137.911 46.597 137.85 47.0885 137.85 47.6094ZM152.889 48.3516H149.422L149.402 46.9062H152.234C152.794 46.9062 153.26 46.8509 153.631 46.7402C154.008 46.6296 154.292 46.4635 154.48 46.2422C154.669 46.0208 154.764 45.7474 154.764 45.4219C154.764 45.168 154.708 44.9466 154.598 44.7578C154.493 44.5625 154.334 44.403 154.119 44.2793C153.904 44.1491 153.637 44.0547 153.318 43.9961C153.006 43.931 152.638 43.8984 152.215 43.8984H149.9V53H148.094V42.4336H152.215C152.885 42.4336 153.488 42.4922 154.021 42.6094C154.562 42.7266 155.021 42.9056 155.398 43.1465C155.783 43.3809 156.076 43.6803 156.277 44.0449C156.479 44.4095 156.58 44.8392 156.58 45.334C156.58 45.653 156.515 45.9557 156.385 46.2422C156.255 46.5286 156.062 46.7826 155.809 47.0039C155.555 47.2253 155.242 47.4076 154.871 47.5508C154.5 47.6875 154.074 47.7754 153.592 47.8145L152.889 48.3516ZM152.889 53H148.768L149.666 51.5352H152.889C153.39 51.5352 153.807 51.4733 154.139 51.3496C154.471 51.2194 154.718 51.0371 154.881 50.8027C155.05 50.5618 155.135 50.2754 155.135 49.9434C155.135 49.6113 155.05 49.3281 154.881 49.0938C154.718 48.8529 154.471 48.6706 154.139 48.5469C153.807 48.4167 153.39 48.3516 152.889 48.3516H150.145L150.164 46.9062H153.592L154.246 47.4531C154.826 47.4987 155.317 47.6419 155.721 47.8828C156.124 48.1237 156.43 48.4297 156.639 48.8008C156.847 49.1654 156.951 49.5625 156.951 49.9922C156.951 50.487 156.857 50.9232 156.668 51.3008C156.486 51.6784 156.219 51.9941 155.867 52.248C155.516 52.4954 155.089 52.6842 154.588 52.8145C154.087 52.9382 153.52 53 152.889 53ZM160.857 46.0664H164.031C164.884 46.0664 165.604 46.2161 166.189 46.5156C166.775 46.8086 167.218 47.2155 167.518 47.7363C167.824 48.2507 167.977 48.8366 167.977 49.4941C167.977 49.9824 167.892 50.4414 167.723 50.8711C167.553 51.2943 167.299 51.6654 166.961 51.9844C166.629 52.3034 166.215 52.554 165.721 52.7363C165.232 52.9121 164.669 53 164.031 53H159.539V42.4336H161.346V51.5156H164.031C164.552 51.5156 164.969 51.4212 165.281 51.2324C165.594 51.0436 165.818 50.7995 165.955 50.5C166.092 50.2005 166.16 49.888 166.16 49.5625C166.16 49.2435 166.092 48.931 165.955 48.625C165.818 48.319 165.594 48.0651 165.281 47.8633C164.969 47.6549 164.552 47.5508 164.031 47.5508H160.857V46.0664ZM171.736 42.4336V53H169.93V42.4336H171.736ZM179.285 53.1953C178.549 53.1953 177.882 53.0716 177.283 52.8242C176.691 52.5703 176.18 52.2155 175.75 51.7598C175.327 51.304 175.001 50.7637 174.773 50.1387C174.546 49.5137 174.432 48.8301 174.432 48.0879V47.6777C174.432 46.8184 174.559 46.0534 174.812 45.3828C175.066 44.7057 175.411 44.1328 175.848 43.6641C176.284 43.1953 176.779 42.8405 177.332 42.5996C177.885 42.3587 178.458 42.2383 179.051 42.2383C179.806 42.2383 180.457 42.3685 181.004 42.6289C181.557 42.8893 182.01 43.2539 182.361 43.7227C182.713 44.1849 182.973 44.7318 183.143 45.3633C183.312 45.9883 183.396 46.6719 183.396 47.4141V48.2246H175.506V46.75H181.59V46.6133C181.564 46.1445 181.466 45.6888 181.297 45.2461C181.134 44.8034 180.874 44.4388 180.516 44.1523C180.158 43.8659 179.669 43.7227 179.051 43.7227C178.641 43.7227 178.263 43.8105 177.918 43.9863C177.573 44.1556 177.277 44.4095 177.029 44.748C176.782 45.0866 176.59 45.5 176.453 45.9883C176.316 46.4766 176.248 47.0397 176.248 47.6777V48.0879C176.248 48.5892 176.316 49.0612 176.453 49.5039C176.596 49.9401 176.801 50.3242 177.068 50.6562C177.342 50.9883 177.671 51.2487 178.055 51.4375C178.445 51.6263 178.888 51.7207 179.383 51.7207C180.021 51.7207 180.561 51.5905 181.004 51.3301C181.447 51.0697 181.834 50.7214 182.166 50.2852L183.26 51.1543C183.032 51.4993 182.742 51.8281 182.391 52.1406C182.039 52.4531 181.606 52.707 181.092 52.9023C180.584 53.0977 179.982 53.1953 179.285 53.1953Z" fill="white"/>
<circle cx="222" cy="46" r="8.5" stroke="white"/>
<path d="M251.322 38.7812V40.3242H244.467V53H242.592V38.7812H251.322ZM244.027 44.5723H247.904C248.946 44.5723 249.825 44.748 250.541 45.0996C251.257 45.4447 251.801 45.9297 252.172 46.5547C252.543 47.1797 252.729 47.9121 252.729 48.752C252.729 49.377 252.624 49.9499 252.416 50.4707C252.208 50.985 251.898 51.4342 251.488 51.8184C251.078 52.196 250.574 52.4889 249.975 52.6973C249.376 52.8991 248.686 53 247.904 53H242.592V38.7812H244.477V51.4668H247.904C248.601 51.4668 249.164 51.3398 249.594 51.0859C250.03 50.8255 250.349 50.487 250.551 50.0703C250.753 49.6536 250.854 49.2077 250.854 48.7324C250.854 48.2572 250.753 47.821 250.551 47.4238C250.349 47.0267 250.03 46.7109 249.594 46.4766C249.164 46.2357 248.601 46.1152 247.904 46.1152H244.027V44.5723ZM254.516 47.834V47.6094C254.516 46.8477 254.626 46.1413 254.848 45.4902C255.069 44.8327 255.388 44.263 255.805 43.7812C256.221 43.293 256.726 42.9154 257.318 42.6484C257.911 42.375 258.575 42.2383 259.311 42.2383C260.053 42.2383 260.72 42.375 261.312 42.6484C261.911 42.9154 262.419 43.293 262.836 43.7812C263.259 44.263 263.581 44.8327 263.803 45.4902C264.024 46.1413 264.135 46.8477 264.135 47.6094V47.834C264.135 48.5957 264.024 49.3021 263.803 49.9531C263.581 50.6042 263.259 51.1738 262.836 51.6621C262.419 52.1439 261.915 52.5215 261.322 52.7949C260.736 53.0618 260.072 53.1953 259.33 53.1953C258.588 53.1953 257.921 53.0618 257.328 52.7949C256.736 52.5215 256.228 52.1439 255.805 51.6621C255.388 51.1738 255.069 50.6042 254.848 49.9531C254.626 49.3021 254.516 48.5957 254.516 47.834ZM256.322 47.6094V47.834C256.322 48.3613 256.384 48.8594 256.508 49.3281C256.632 49.7904 256.817 50.2005 257.064 50.5586C257.318 50.9167 257.634 51.1999 258.012 51.4082C258.389 51.61 258.829 51.7109 259.33 51.7109C259.825 51.7109 260.258 51.61 260.629 51.4082C261.007 51.1999 261.319 50.9167 261.566 50.5586C261.814 50.2005 261.999 49.7904 262.123 49.3281C262.253 48.8594 262.318 48.3613 262.318 47.834V47.6094C262.318 47.0885 262.253 46.597 262.123 46.1348C261.999 45.666 261.811 45.2526 261.557 44.8945C261.309 44.5299 260.997 44.2435 260.619 44.0352C260.248 43.8268 259.812 43.7227 259.311 43.7227C258.816 43.7227 258.38 43.8268 258.002 44.0352C257.631 44.2435 257.318 44.5299 257.064 44.8945C256.817 45.2526 256.632 45.666 256.508 46.1348C256.384 46.597 256.322 47.0885 256.322 47.6094ZM273.305 42.4336V43.9277H268.197V42.4336H273.305ZM274.896 42.4336V53H273.09V42.4336H274.896ZM267.758 42.4336H269.574L269.301 47.5312C269.255 48.319 269.18 49.0156 269.076 49.6211C268.979 50.2201 268.842 50.7344 268.666 51.1641C268.497 51.5938 268.282 51.9453 268.021 52.2188C267.768 52.4857 267.462 52.6842 267.104 52.8145C266.745 52.9382 266.332 53 265.863 53H265.297V51.4082L265.688 51.3789C265.967 51.3594 266.205 51.2943 266.4 51.1836C266.602 51.0729 266.771 50.9102 266.908 50.6953C267.045 50.474 267.156 50.1908 267.24 49.8457C267.331 49.5007 267.4 49.0905 267.445 48.6152C267.497 48.14 267.536 47.5866 267.562 46.9551L267.758 42.4336ZM282.191 53.1953C281.456 53.1953 280.788 53.0716 280.189 52.8242C279.597 52.5703 279.086 52.2155 278.656 51.7598C278.233 51.304 277.908 50.7637 277.68 50.1387C277.452 49.5137 277.338 48.8301 277.338 48.0879V47.6777C277.338 46.8184 277.465 46.0534 277.719 45.3828C277.973 44.7057 278.318 44.1328 278.754 43.6641C279.19 43.1953 279.685 42.8405 280.238 42.5996C280.792 42.3587 281.365 42.2383 281.957 42.2383C282.712 42.2383 283.363 42.3685 283.91 42.6289C284.464 42.8893 284.916 43.2539 285.268 43.7227C285.619 44.1849 285.88 44.7318 286.049 45.3633C286.218 45.9883 286.303 46.6719 286.303 47.4141V48.2246H278.412V46.75H284.496V46.6133C284.47 46.1445 284.372 45.6888 284.203 45.2461C284.04 44.8034 283.78 44.4388 283.422 44.1523C283.064 43.8659 282.576 43.7227 281.957 43.7227C281.547 43.7227 281.169 43.8105 280.824 43.9863C280.479 44.1556 280.183 44.4095 279.936 44.748C279.688 45.0866 279.496 45.5 279.359 45.9883C279.223 46.4766 279.154 47.0397 279.154 47.6777V48.0879C279.154 48.5892 279.223 49.0612 279.359 49.5039C279.503 49.9401 279.708 50.3242 279.975 50.6562C280.248 50.9883 280.577 51.2487 280.961 51.4375C281.352 51.6263 281.794 51.7207 282.289 51.7207C282.927 51.7207 283.467 51.5905 283.91 51.3301C284.353 51.0697 284.74 50.7214 285.072 50.2852L286.166 51.1543C285.938 51.4993 285.648 51.8281 285.297 52.1406C284.945 52.4531 284.512 52.707 283.998 52.9023C283.49 53.0977 282.888 53.1953 282.191 53.1953ZM292.797 53.1953C292.061 53.1953 291.394 53.0716 290.795 52.8242C290.202 52.5703 289.691 52.2155 289.262 51.7598C288.839 51.304 288.513 50.7637 288.285 50.1387C288.057 49.5137 287.943 48.8301 287.943 48.0879V47.6777C287.943 46.8184 288.07 46.0534 288.324 45.3828C288.578 44.7057 288.923 44.1328 289.359 43.6641C289.796 43.1953 290.29 42.8405 290.844 42.5996C291.397 42.3587 291.97 42.2383 292.562 42.2383C293.318 42.2383 293.969 42.3685 294.516 42.6289C295.069 42.8893 295.521 43.2539 295.873 43.7227C296.225 44.1849 296.485 44.7318 296.654 45.3633C296.824 45.9883 296.908 46.6719 296.908 47.4141V48.2246H289.018V46.75H295.102V46.6133C295.076 46.1445 294.978 45.6888 294.809 45.2461C294.646 44.8034 294.385 44.4388 294.027 44.1523C293.669 43.8659 293.181 43.7227 292.562 43.7227C292.152 43.7227 291.775 43.8105 291.43 43.9863C291.085 44.1556 290.788 44.4095 290.541 44.748C290.294 45.0866 290.102 45.5 289.965 45.9883C289.828 46.4766 289.76 47.0397 289.76 47.6777V48.0879C289.76 48.5892 289.828 49.0612 289.965 49.5039C290.108 49.9401 290.313 50.3242 290.58 50.6562C290.854 50.9883 291.182 51.2487 291.566 51.4375C291.957 51.6263 292.4 51.7207 292.895 51.7207C293.533 51.7207 294.073 51.5905 294.516 51.3301C294.958 51.0697 295.346 50.7214 295.678 50.2852L296.771 51.1543C296.544 51.4993 296.254 51.8281 295.902 52.1406C295.551 52.4531 295.118 52.707 294.604 52.9023C294.096 53.0977 293.493 53.1953 292.797 53.1953ZM308.207 51.7109C308.637 51.7109 309.034 51.623 309.398 51.4473C309.763 51.2715 310.062 51.0306 310.297 50.7246C310.531 50.4121 310.665 50.0573 310.697 49.6602H312.416C312.383 50.2852 312.172 50.8678 311.781 51.4082C311.397 51.9421 310.893 52.375 310.268 52.707C309.643 53.0326 308.956 53.1953 308.207 53.1953C307.413 53.1953 306.719 53.0553 306.127 52.7754C305.541 52.4954 305.053 52.1113 304.662 51.623C304.278 51.1348 303.988 50.5749 303.793 49.9434C303.604 49.3053 303.51 48.6315 303.51 47.9219V47.5117C303.51 46.8021 303.604 46.1315 303.793 45.5C303.988 44.862 304.278 44.2988 304.662 43.8105C305.053 43.3223 305.541 42.9382 306.127 42.6582C306.719 42.3783 307.413 42.2383 308.207 42.2383C309.034 42.2383 309.757 42.4076 310.375 42.7461C310.993 43.0781 311.479 43.5339 311.83 44.1133C312.188 44.6862 312.383 45.3372 312.416 46.0664H310.697C310.665 45.6302 310.541 45.2363 310.326 44.8848C310.118 44.5332 309.831 44.2533 309.467 44.0449C309.109 43.8301 308.689 43.7227 308.207 43.7227C307.654 43.7227 307.188 43.8333 306.811 44.0547C306.439 44.2695 306.143 44.5625 305.922 44.9336C305.707 45.2982 305.551 45.7051 305.453 46.1543C305.362 46.597 305.316 47.0495 305.316 47.5117V47.9219C305.316 48.3841 305.362 48.8398 305.453 49.2891C305.544 49.7383 305.697 50.1452 305.912 50.5098C306.133 50.8743 306.43 51.1673 306.801 51.3887C307.178 51.6035 307.647 51.7109 308.207 51.7109ZM318.754 42.4336V53H316.938V42.4336H318.754ZM322.299 42.4336V43.8984H313.461V42.4336H322.299ZM330.15 51.1934V45.7539C330.15 45.3372 330.066 44.9759 329.896 44.6699C329.734 44.3574 329.486 44.1165 329.154 43.9473C328.822 43.778 328.412 43.6934 327.924 43.6934C327.468 43.6934 327.068 43.7715 326.723 43.9277C326.384 44.084 326.117 44.2891 325.922 44.543C325.733 44.7969 325.639 45.0703 325.639 45.3633H323.832C323.832 44.9857 323.93 44.6113 324.125 44.2402C324.32 43.8691 324.6 43.5339 324.965 43.2344C325.336 42.9284 325.779 42.6875 326.293 42.5117C326.814 42.3294 327.393 42.2383 328.031 42.2383C328.799 42.2383 329.477 42.3685 330.062 42.6289C330.655 42.8893 331.117 43.2832 331.449 43.8105C331.788 44.3314 331.957 44.9857 331.957 45.7734V50.6953C331.957 51.0469 331.986 51.4212 332.045 51.8184C332.11 52.2155 332.204 52.5573 332.328 52.8438V53H330.443C330.352 52.7917 330.281 52.515 330.229 52.1699C330.176 51.8184 330.15 51.4928 330.15 51.1934ZM330.463 46.5938L330.482 47.8633H328.656C328.142 47.8633 327.683 47.9056 327.279 47.9902C326.876 48.0684 326.537 48.1888 326.264 48.3516C325.99 48.5143 325.782 48.7194 325.639 48.9668C325.495 49.2077 325.424 49.4909 325.424 49.8164C325.424 50.1484 325.499 50.4512 325.648 50.7246C325.798 50.998 326.023 51.2161 326.322 51.3789C326.628 51.5352 327.003 51.6133 327.445 51.6133C327.999 51.6133 328.487 51.4961 328.91 51.2617C329.333 51.0273 329.669 50.7409 329.916 50.4023C330.17 50.0638 330.307 49.735 330.326 49.416L331.098 50.2852C331.052 50.5586 330.928 50.8613 330.727 51.1934C330.525 51.5254 330.255 51.8444 329.916 52.1504C329.584 52.4499 329.187 52.7005 328.725 52.9023C328.269 53.0977 327.755 53.1953 327.182 53.1953C326.465 53.1953 325.837 53.0553 325.297 52.7754C324.763 52.4954 324.346 52.1211 324.047 51.6523C323.754 51.1771 323.607 50.6465 323.607 50.0605C323.607 49.4941 323.718 48.9961 323.939 48.5664C324.161 48.1302 324.48 47.7689 324.896 47.4824C325.313 47.1895 325.814 46.9681 326.4 46.8184C326.986 46.6686 327.641 46.5938 328.363 46.5938H330.463ZM336.605 44.4648V57.0625H334.789V42.4336H336.449L336.605 44.4648ZM343.725 47.6289V47.834C343.725 48.6022 343.633 49.3151 343.451 49.9727C343.269 50.6237 343.002 51.1901 342.65 51.6719C342.305 52.1536 341.879 52.528 341.371 52.7949C340.863 53.0618 340.281 53.1953 339.623 53.1953C338.952 53.1953 338.36 53.0846 337.846 52.8633C337.331 52.6419 336.895 52.3197 336.537 51.8965C336.179 51.4733 335.893 50.9655 335.678 50.373C335.469 49.7806 335.326 49.1133 335.248 48.3711V47.2773C335.326 46.4961 335.473 45.7962 335.688 45.1777C335.902 44.5592 336.186 44.0319 336.537 43.5957C336.895 43.153 337.328 42.8177 337.836 42.5898C338.344 42.3555 338.93 42.2383 339.594 42.2383C340.258 42.2383 340.847 42.3685 341.361 42.6289C341.876 42.8828 342.309 43.2474 342.66 43.7227C343.012 44.1979 343.275 44.7676 343.451 45.4316C343.633 46.0892 343.725 46.8216 343.725 47.6289ZM341.908 47.834V47.6289C341.908 47.1016 341.853 46.6068 341.742 46.1445C341.632 45.6758 341.459 45.2656 341.225 44.9141C340.997 44.556 340.704 44.276 340.346 44.0742C339.988 43.8659 339.561 43.7617 339.066 43.7617C338.611 43.7617 338.214 43.8398 337.875 43.9961C337.543 44.1523 337.26 44.3639 337.025 44.6309C336.791 44.8913 336.599 45.1908 336.449 45.5293C336.306 45.8613 336.199 46.2064 336.127 46.5645V49.0938C336.257 49.5495 336.439 49.9792 336.674 50.3828C336.908 50.7799 337.221 51.1022 337.611 51.3496C338.002 51.5905 338.493 51.7109 339.086 51.7109C339.574 51.7109 339.994 51.61 340.346 51.4082C340.704 51.1999 340.997 50.9167 341.225 50.5586C341.459 50.2005 341.632 49.7904 341.742 49.3281C341.853 48.8594 341.908 48.3613 341.908 47.834ZM347.514 46.0664H350.688C351.54 46.0664 352.26 46.2161 352.846 46.5156C353.432 46.8086 353.874 47.2155 354.174 47.7363C354.48 48.2507 354.633 48.8366 354.633 49.4941C354.633 49.9824 354.548 50.4414 354.379 50.8711C354.21 51.2943 353.956 51.6654 353.617 51.9844C353.285 52.3034 352.872 52.554 352.377 52.7363C351.889 52.9121 351.326 53 350.688 53H346.195V42.4336H348.002V51.5156H350.688C351.208 51.5156 351.625 51.4212 351.938 51.2324C352.25 51.0436 352.475 50.7995 352.611 50.5C352.748 50.2005 352.816 49.888 352.816 49.5625C352.816 49.2435 352.748 48.931 352.611 48.625C352.475 48.319 352.25 48.0651 351.938 47.8633C351.625 47.6549 351.208 47.5508 350.688 47.5508H347.514V46.0664ZM358.393 42.4336V53H356.586V42.4336H358.393ZM365.941 53.1953C365.206 53.1953 364.538 53.0716 363.939 52.8242C363.347 52.5703 362.836 52.2155 362.406 51.7598C361.983 51.304 361.658 50.7637 361.43 50.1387C361.202 49.5137 361.088 48.8301 361.088 48.0879V47.6777C361.088 46.8184 361.215 46.0534 361.469 45.3828C361.723 44.7057 362.068 44.1328 362.504 43.6641C362.94 43.1953 363.435 42.8405 363.988 42.5996C364.542 42.3587 365.115 42.2383 365.707 42.2383C366.462 42.2383 367.113 42.3685 367.66 42.6289C368.214 42.8893 368.666 43.2539 369.018 43.7227C369.369 44.1849 369.63 44.7318 369.799 45.3633C369.968 45.9883 370.053 46.6719 370.053 47.4141V48.2246H362.162V46.75H368.246V46.6133C368.22 46.1445 368.122 45.6888 367.953 45.2461C367.79 44.8034 367.53 44.4388 367.172 44.1523C366.814 43.8659 366.326 43.7227 365.707 43.7227C365.297 43.7227 364.919 43.8105 364.574 43.9863C364.229 44.1556 363.933 44.4095 363.686 44.748C363.438 45.0866 363.246 45.5 363.109 45.9883C362.973 46.4766 362.904 47.0397 362.904 47.6777V48.0879C362.904 48.5892 362.973 49.0612 363.109 49.5039C363.253 49.9401 363.458 50.3242 363.725 50.6562C363.998 50.9883 364.327 51.2487 364.711 51.4375C365.102 51.6263 365.544 51.7207 366.039 51.7207C366.677 51.7207 367.217 51.5905 367.66 51.3301C368.103 51.0697 368.49 50.7214 368.822 50.2852L369.916 51.1543C369.688 51.4993 369.398 51.8281 369.047 52.1406C368.695 52.4531 368.262 52.707 367.748 52.9023C367.24 53.0977 366.638 53.1953 365.941 53.1953Z" fill="white"/>
</svg>
