<svg width="247" height="305" viewBox="0 0 247 305" fill="none" xmlns="http://www.w3.org/2000/svg">
<rect width="247" height="305" rx="12" fill="#313131"/>
<path d="M36.2461 41.2812H38.0723L42.7305 52.873L47.3789 41.2812H49.2148L43.4336 55.5H42.0078L36.2461 41.2812ZM35.6504 41.2812H37.2617L37.5254 49.9531V55.5H35.6504V41.2812ZM48.1895 41.2812H49.8008V55.5H47.9258V49.9531L48.1895 41.2812ZM54.8008 44.9336V55.5H52.9844V44.9336H54.8008ZM52.8477 42.1309C52.8477 41.8379 52.9355 41.5905 53.1113 41.3887C53.2936 41.1868 53.5605 41.0859 53.9121 41.0859C54.2572 41.0859 54.5208 41.1868 54.7031 41.3887C54.8919 41.5905 54.9863 41.8379 54.9863 42.1309C54.9863 42.4108 54.8919 42.6517 54.7031 42.8535C54.5208 43.0488 54.2572 43.1465 53.9121 43.1465C53.5605 43.1465 53.2936 43.0488 53.1113 42.8535C52.9355 42.6517 52.8477 42.4108 52.8477 42.1309ZM61.9297 54.2109C62.3594 54.2109 62.7565 54.123 63.1211 53.9473C63.4857 53.7715 63.7852 53.5306 64.0195 53.2246C64.2539 52.9121 64.3874 52.5573 64.4199 52.1602H66.1387C66.1061 52.7852 65.8945 53.3678 65.5039 53.9082C65.1198 54.4421 64.6152 54.875 63.9902 55.207C63.3652 55.5326 62.6784 55.6953 61.9297 55.6953C61.1354 55.6953 60.4421 55.5553 59.8496 55.2754C59.2637 54.9954 58.7754 54.6113 58.3848 54.123C58.0007 53.6348 57.7109 53.0749 57.5156 52.4434C57.3268 51.8053 57.2324 51.1315 57.2324 50.4219V50.0117C57.2324 49.3021 57.3268 48.6315 57.5156 48C57.7109 47.362 58.0007 46.7988 58.3848 46.3105C58.7754 45.8223 59.2637 45.4382 59.8496 45.1582C60.4421 44.8783 61.1354 44.7383 61.9297 44.7383C62.7565 44.7383 63.4792 44.9076 64.0977 45.2461C64.7161 45.5781 65.2012 46.0339 65.5527 46.6133C65.9108 47.1862 66.1061 47.8372 66.1387 48.5664H64.4199C64.3874 48.1302 64.2637 47.7363 64.0488 47.3848C63.8405 47.0332 63.554 46.7533 63.1895 46.5449C62.8314 46.3301 62.4115 46.2227 61.9297 46.2227C61.3763 46.2227 60.9108 46.3333 60.5332 46.5547C60.1621 46.7695 59.8659 47.0625 59.6445 47.4336C59.4297 47.7982 59.2734 48.2051 59.1758 48.6543C59.0846 49.097 59.0391 49.5495 59.0391 50.0117V50.4219C59.0391 50.8841 59.0846 51.3398 59.1758 51.7891C59.2669 52.2383 59.4199 52.6452 59.6348 53.0098C59.8561 53.3743 60.1523 53.6673 60.5234 53.8887C60.901 54.1035 61.3698 54.2109 61.9297 54.2109ZM69.9766 40.5V55.5H68.1699V40.5H69.9766ZM69.5469 49.8164L68.7949 49.7871C68.8014 49.0645 68.9089 48.3971 69.1172 47.7852C69.3255 47.1667 69.6185 46.6296 69.9961 46.1738C70.3737 45.7181 70.8229 45.3665 71.3438 45.1191C71.8711 44.8652 72.4538 44.7383 73.0918 44.7383C73.6126 44.7383 74.0814 44.8099 74.498 44.9531C74.9147 45.0898 75.2695 45.3112 75.5625 45.6172C75.862 45.9232 76.0898 46.3203 76.2461 46.8086C76.4023 47.2904 76.4805 47.8796 76.4805 48.5762V55.5H74.6641V48.5566C74.6641 48.0033 74.5827 47.5605 74.4199 47.2285C74.2572 46.89 74.0195 46.6458 73.707 46.4961C73.3945 46.3398 73.0104 46.2617 72.5547 46.2617C72.1055 46.2617 71.6953 46.3561 71.3242 46.5449C70.9596 46.7337 70.6439 46.9941 70.377 47.3262C70.1165 47.6582 69.9115 48.0391 69.7617 48.4688C69.6185 48.8919 69.5469 49.3411 69.5469 49.8164ZM85.416 53.6934V48.2539C85.416 47.8372 85.3314 47.4759 85.1621 47.1699C84.9993 46.8574 84.752 46.6165 84.4199 46.4473C84.0879 46.278 83.6777 46.1934 83.1895 46.1934C82.7337 46.1934 82.3333 46.2715 81.9883 46.4277C81.6497 46.584 81.3828 46.7891 81.1875 47.043C80.9987 47.2969 80.9043 47.5703 80.9043 47.8633H79.0977C79.0977 47.4857 79.1953 47.1113 79.3906 46.7402C79.5859 46.3691 79.8659 46.0339 80.2305 45.7344C80.6016 45.4284 81.0443 45.1875 81.5586 45.0117C82.0794 44.8294 82.6589 44.7383 83.2969 44.7383C84.0651 44.7383 84.7422 44.8685 85.3281 45.1289C85.9206 45.3893 86.3828 45.7832 86.7148 46.3105C87.0534 46.8314 87.2227 47.4857 87.2227 48.2734V53.1953C87.2227 53.5469 87.252 53.9212 87.3105 54.3184C87.3757 54.7155 87.4701 55.0573 87.5938 55.3438V55.5H85.709C85.6178 55.2917 85.5462 55.015 85.4941 54.6699C85.4421 54.3184 85.416 53.9928 85.416 53.6934ZM85.7285 49.0938L85.748 50.3633H83.9219C83.4076 50.3633 82.9486 50.4056 82.5449 50.4902C82.1413 50.5684 81.8027 50.6888 81.5293 50.8516C81.2559 51.0143 81.0475 51.2194 80.9043 51.4668C80.7611 51.7077 80.6895 51.9909 80.6895 52.3164C80.6895 52.6484 80.7643 52.9512 80.9141 53.2246C81.0638 53.498 81.2884 53.7161 81.5879 53.8789C81.8939 54.0352 82.2682 54.1133 82.7109 54.1133C83.2643 54.1133 83.7526 53.9961 84.1758 53.7617C84.599 53.5273 84.9342 53.2409 85.1816 52.9023C85.4355 52.5638 85.5723 52.235 85.5918 51.916L86.3633 52.7852C86.3177 53.0586 86.194 53.3613 85.9922 53.6934C85.7904 54.0254 85.5202 54.3444 85.1816 54.6504C84.8496 54.9499 84.4525 55.2005 83.9902 55.4023C83.5345 55.5977 83.0202 55.6953 82.4473 55.6953C81.7311 55.6953 81.1029 55.5553 80.5625 55.2754C80.0286 54.9954 79.612 54.6211 79.3125 54.1523C79.0195 53.6771 78.873 53.1465 78.873 52.5605C78.873 51.9941 78.9837 51.4961 79.2051 51.0664C79.4264 50.6302 79.7454 50.2689 80.1621 49.9824C80.5788 49.6895 81.0801 49.4681 81.666 49.3184C82.252 49.1686 82.9062 49.0938 83.6289 49.0938H85.7285ZM94.4492 55.6953C93.7135 55.6953 93.0462 55.5716 92.4473 55.3242C91.8548 55.0703 91.3438 54.7155 90.9141 54.2598C90.4909 53.804 90.1654 53.2637 89.9375 52.6387C89.7096 52.0137 89.5957 51.3301 89.5957 50.5879V50.1777C89.5957 49.3184 89.7227 48.5534 89.9766 47.8828C90.2305 47.2057 90.5755 46.6328 91.0117 46.1641C91.4479 45.6953 91.9427 45.3405 92.4961 45.0996C93.0495 44.8587 93.6224 44.7383 94.2148 44.7383C94.9701 44.7383 95.6211 44.8685 96.168 45.1289C96.7214 45.3893 97.1738 45.7539 97.5254 46.2227C97.877 46.6849 98.1374 47.2318 98.3066 47.8633C98.4759 48.4883 98.5605 49.1719 98.5605 49.9141V50.7246H90.6699V49.25H96.7539V49.1133C96.7279 48.6445 96.6302 48.1888 96.4609 47.7461C96.2982 47.3034 96.0378 46.9388 95.6797 46.6523C95.3216 46.3659 94.8333 46.2227 94.2148 46.2227C93.8047 46.2227 93.4271 46.3105 93.082 46.4863C92.737 46.6556 92.4408 46.9095 92.1934 47.248C91.946 47.5866 91.7539 48 91.6172 48.4883C91.4805 48.9766 91.4121 49.5397 91.4121 50.1777V50.5879C91.4121 51.0892 91.4805 51.5612 91.6172 52.0039C91.7604 52.4401 91.9655 52.8242 92.2324 53.1562C92.5059 53.4883 92.8346 53.7487 93.2188 53.9375C93.6094 54.1263 94.0521 54.2207 94.5469 54.2207C95.1849 54.2207 95.7253 54.0905 96.168 53.8301C96.6107 53.5697 96.998 53.2214 97.3301 52.7852L98.4238 53.6543C98.196 53.9993 97.9062 54.3281 97.5547 54.6406C97.2031 54.9531 96.7702 55.207 96.2559 55.4023C95.748 55.5977 95.1458 55.6953 94.4492 55.6953ZM102.633 40.5V55.5H100.816V40.5H102.633ZM116.734 51.3496V41.2812H118.609V51.3496C118.609 52.2871 118.417 53.0781 118.033 53.7227C117.649 54.3672 117.118 54.8587 116.441 55.1973C115.771 55.5293 114.999 55.6953 114.127 55.6953C113.255 55.6953 112.48 55.5456 111.803 55.2461C111.126 54.9466 110.595 54.4909 110.211 53.8789C109.827 53.2669 109.635 52.4954 109.635 51.5645H111.52C111.52 52.1634 111.63 52.6549 111.852 53.0391C112.073 53.4232 112.379 53.7064 112.77 53.8887C113.167 54.071 113.619 54.1621 114.127 54.1621C114.622 54.1621 115.064 54.0579 115.455 53.8496C115.852 53.6348 116.165 53.319 116.393 52.9023C116.62 52.4792 116.734 51.9616 116.734 51.3496ZM127.76 53.6934V48.2539C127.76 47.8372 127.675 47.4759 127.506 47.1699C127.343 46.8574 127.096 46.6165 126.764 46.4473C126.432 46.278 126.021 46.1934 125.533 46.1934C125.077 46.1934 124.677 46.2715 124.332 46.4277C123.993 46.584 123.727 46.7891 123.531 47.043C123.342 47.2969 123.248 47.5703 123.248 47.8633H121.441C121.441 47.4857 121.539 47.1113 121.734 46.7402C121.93 46.3691 122.21 46.0339 122.574 45.7344C122.945 45.4284 123.388 45.1875 123.902 45.0117C124.423 44.8294 125.003 44.7383 125.641 44.7383C126.409 44.7383 127.086 44.8685 127.672 45.1289C128.264 45.3893 128.727 45.7832 129.059 46.3105C129.397 46.8314 129.566 47.4857 129.566 48.2734V53.1953C129.566 53.5469 129.596 53.9212 129.654 54.3184C129.719 54.7155 129.814 55.0573 129.938 55.3438V55.5H128.053C127.962 55.2917 127.89 55.015 127.838 54.6699C127.786 54.3184 127.76 53.9928 127.76 53.6934ZM128.072 49.0938L128.092 50.3633H126.266C125.751 50.3633 125.292 50.4056 124.889 50.4902C124.485 50.5684 124.146 50.6888 123.873 50.8516C123.6 51.0143 123.391 51.2194 123.248 51.4668C123.105 51.7077 123.033 51.9909 123.033 52.3164C123.033 52.6484 123.108 52.9512 123.258 53.2246C123.408 53.498 123.632 53.7161 123.932 53.8789C124.238 54.0352 124.612 54.1133 125.055 54.1133C125.608 54.1133 126.096 53.9961 126.52 53.7617C126.943 53.5273 127.278 53.2409 127.525 52.9023C127.779 52.5638 127.916 52.235 127.936 51.916L128.707 52.7852C128.661 53.0586 128.538 53.3613 128.336 53.6934C128.134 54.0254 127.864 54.3444 127.525 54.6504C127.193 54.9499 126.796 55.2005 126.334 55.4023C125.878 55.5977 125.364 55.6953 124.791 55.6953C124.075 55.6953 123.447 55.5553 122.906 55.2754C122.372 54.9954 121.956 54.6211 121.656 54.1523C121.363 53.6771 121.217 53.1465 121.217 52.5605C121.217 51.9941 121.327 51.4961 121.549 51.0664C121.77 50.6302 122.089 50.2689 122.506 49.9824C122.923 49.6895 123.424 49.4681 124.01 49.3184C124.596 49.1686 125.25 49.0938 125.973 49.0938H128.072ZM136.637 54.2109C137.066 54.2109 137.464 54.123 137.828 53.9473C138.193 53.7715 138.492 53.5306 138.727 53.2246C138.961 52.9121 139.094 52.5573 139.127 52.1602H140.846C140.813 52.7852 140.602 53.3678 140.211 53.9082C139.827 54.4421 139.322 54.875 138.697 55.207C138.072 55.5326 137.385 55.6953 136.637 55.6953C135.842 55.6953 135.149 55.5553 134.557 55.2754C133.971 54.9954 133.482 54.6113 133.092 54.123C132.708 53.6348 132.418 53.0749 132.223 52.4434C132.034 51.8053 131.939 51.1315 131.939 50.4219V50.0117C131.939 49.3021 132.034 48.6315 132.223 48C132.418 47.362 132.708 46.7988 133.092 46.3105C133.482 45.8223 133.971 45.4382 134.557 45.1582C135.149 44.8783 135.842 44.7383 136.637 44.7383C137.464 44.7383 138.186 44.9076 138.805 45.2461C139.423 45.5781 139.908 46.0339 140.26 46.6133C140.618 47.1862 140.813 47.8372 140.846 48.5664H139.127C139.094 48.1302 138.971 47.7363 138.756 47.3848C138.548 47.0332 138.261 46.7533 137.896 46.5449C137.538 46.3301 137.118 46.2227 136.637 46.2227C136.083 46.2227 135.618 46.3333 135.24 46.5547C134.869 46.7695 134.573 47.0625 134.352 47.4336C134.137 47.7982 133.98 48.2051 133.883 48.6543C133.792 49.097 133.746 49.5495 133.746 50.0117V50.4219C133.746 50.8841 133.792 51.3398 133.883 51.7891C133.974 52.2383 134.127 52.6452 134.342 53.0098C134.563 53.3743 134.859 53.6673 135.23 53.8887C135.608 54.1035 136.077 54.2109 136.637 54.2109ZM144.693 40.5V55.5H142.877V40.5H144.693ZM151.148 44.9336L146.539 49.8652L143.961 52.541L143.814 50.6172L145.66 48.4102L148.941 44.9336H151.148ZM149.498 55.5L145.729 50.4609L146.666 48.8496L151.627 55.5H149.498ZM159.166 52.6973C159.166 52.4368 159.107 52.196 158.99 51.9746C158.88 51.7467 158.648 51.5417 158.297 51.3594C157.952 51.1706 157.431 51.0078 156.734 50.8711C156.148 50.7474 155.618 50.6009 155.143 50.4316C154.674 50.2624 154.273 50.0573 153.941 49.8164C153.616 49.5755 153.365 49.2923 153.189 48.9668C153.014 48.6413 152.926 48.2604 152.926 47.8242C152.926 47.4076 153.017 47.0137 153.199 46.6426C153.388 46.2715 153.652 45.9427 153.99 45.6562C154.335 45.3698 154.749 45.1452 155.23 44.9824C155.712 44.8197 156.249 44.7383 156.842 44.7383C157.688 44.7383 158.411 44.888 159.01 45.1875C159.609 45.487 160.068 45.8874 160.387 46.3887C160.706 46.8835 160.865 47.4336 160.865 48.0391H159.059C159.059 47.7461 158.971 47.4629 158.795 47.1895C158.626 46.9095 158.375 46.6784 158.043 46.4961C157.717 46.3138 157.317 46.2227 156.842 46.2227C156.34 46.2227 155.934 46.3008 155.621 46.457C155.315 46.6068 155.09 46.7988 154.947 47.0332C154.811 47.2676 154.742 47.515 154.742 47.7754C154.742 47.9707 154.775 48.1465 154.84 48.3027C154.911 48.4525 155.035 48.5924 155.211 48.7227C155.387 48.8464 155.634 48.9635 155.953 49.0742C156.272 49.1849 156.679 49.2956 157.174 49.4062C158.04 49.6016 158.753 49.8359 159.312 50.1094C159.872 50.3828 160.289 50.7181 160.562 51.1152C160.836 51.5124 160.973 51.9941 160.973 52.5605C160.973 53.0228 160.875 53.446 160.68 53.8301C160.491 54.2142 160.214 54.5462 159.85 54.8262C159.492 55.0996 159.062 55.3145 158.561 55.4707C158.066 55.6204 157.509 55.6953 156.891 55.6953C155.96 55.6953 155.172 55.5293 154.527 55.1973C153.883 54.8652 153.395 54.4355 153.062 53.9082C152.73 53.3809 152.564 52.8242 152.564 52.2383H154.381C154.407 52.7331 154.55 53.127 154.811 53.4199C155.071 53.7064 155.39 53.9115 155.768 54.0352C156.145 54.1523 156.52 54.2109 156.891 54.2109C157.385 54.2109 157.799 54.1458 158.131 54.0156C158.469 53.8854 158.727 53.7064 158.902 53.4785C159.078 53.2507 159.166 52.9902 159.166 52.6973ZM162.867 50.334V50.1094C162.867 49.3477 162.978 48.6413 163.199 47.9902C163.421 47.3327 163.74 46.763 164.156 46.2812C164.573 45.793 165.077 45.4154 165.67 45.1484C166.262 44.875 166.926 44.7383 167.662 44.7383C168.404 44.7383 169.072 44.875 169.664 45.1484C170.263 45.4154 170.771 45.793 171.188 46.2812C171.611 46.763 171.933 47.3327 172.154 47.9902C172.376 48.6413 172.486 49.3477 172.486 50.1094V50.334C172.486 51.0957 172.376 51.8021 172.154 52.4531C171.933 53.1042 171.611 53.6738 171.188 54.1621C170.771 54.6439 170.266 55.0215 169.674 55.2949C169.088 55.5618 168.424 55.6953 167.682 55.6953C166.939 55.6953 166.272 55.5618 165.68 55.2949C165.087 55.0215 164.579 54.6439 164.156 54.1621C163.74 53.6738 163.421 53.1042 163.199 52.4531C162.978 51.8021 162.867 51.0957 162.867 50.334ZM164.674 50.1094V50.334C164.674 50.8613 164.736 51.3594 164.859 51.8281C164.983 52.2904 165.169 52.7005 165.416 53.0586C165.67 53.4167 165.986 53.6999 166.363 53.9082C166.741 54.11 167.18 54.2109 167.682 54.2109C168.176 54.2109 168.609 54.11 168.98 53.9082C169.358 53.6999 169.671 53.4167 169.918 53.0586C170.165 52.7005 170.351 52.2904 170.475 51.8281C170.605 51.3594 170.67 50.8613 170.67 50.334V50.1094C170.67 49.5885 170.605 49.097 170.475 48.6348C170.351 48.166 170.162 47.7526 169.908 47.3945C169.661 47.0299 169.348 46.7435 168.971 46.5352C168.6 46.3268 168.163 46.2227 167.662 46.2227C167.167 46.2227 166.731 46.3268 166.354 46.5352C165.982 46.7435 165.67 47.0299 165.416 47.3945C165.169 47.7526 164.983 48.166 164.859 48.6348C164.736 49.097 164.674 49.5885 164.674 50.1094ZM176.559 47.1895V55.5H174.752V44.9336H176.461L176.559 47.1895ZM176.129 49.8164L175.377 49.7871C175.383 49.0645 175.491 48.3971 175.699 47.7852C175.908 47.1667 176.201 46.6296 176.578 46.1738C176.956 45.7181 177.405 45.3665 177.926 45.1191C178.453 44.8652 179.036 44.7383 179.674 44.7383C180.195 44.7383 180.663 44.8099 181.08 44.9531C181.497 45.0898 181.852 45.3112 182.145 45.6172C182.444 45.9232 182.672 46.3203 182.828 46.8086C182.984 47.2904 183.062 47.8796 183.062 48.5762V55.5H181.246V48.5566C181.246 48.0033 181.165 47.5605 181.002 47.2285C180.839 46.89 180.602 46.6458 180.289 46.4961C179.977 46.3398 179.592 46.2617 179.137 46.2617C178.688 46.2617 178.277 46.3561 177.906 46.5449C177.542 46.7337 177.226 46.9941 176.959 47.3262C176.699 47.6582 176.493 48.0391 176.344 48.4688C176.201 48.8919 176.129 49.3411 176.129 49.8164Z" fill="#B672FF"/>
<path d="M34 57.4531H184.42V58.4297H34V57.4531Z" fill="#B672FF"/>
<path d="M37.5352 93.2812V107.5H35.6504V93.2812H37.5352ZM43.4922 99.6777V101.221H37.125V99.6777H43.4922ZM44.459 93.2812V94.8242H37.125V93.2812H44.459ZM47.9844 98.5938V107.5H46.1777V96.9336H47.9355L47.9844 98.5938ZM51.2852 96.875L51.2754 98.5547C51.1257 98.5221 50.9824 98.5026 50.8457 98.4961C50.7155 98.4831 50.5658 98.4766 50.3965 98.4766C49.9798 98.4766 49.612 98.5417 49.293 98.6719C48.974 98.8021 48.7038 98.9844 48.4824 99.2188C48.2611 99.4531 48.0853 99.7331 47.9551 100.059C47.8314 100.378 47.75 100.729 47.7109 101.113L47.2031 101.406C47.2031 100.768 47.265 100.169 47.3887 99.6094C47.5189 99.0495 47.7174 98.5547 47.9844 98.125C48.2513 97.6888 48.5898 97.3503 49 97.1094C49.4167 96.862 49.9115 96.7383 50.4844 96.7383C50.6146 96.7383 50.7643 96.7546 50.9336 96.7871C51.1029 96.8132 51.2201 96.8424 51.2852 96.875ZM58.7949 105.693V100.254C58.7949 99.8372 58.7103 99.4759 58.541 99.1699C58.3783 98.8574 58.1309 98.6165 57.7988 98.4473C57.4668 98.278 57.0566 98.1934 56.5684 98.1934C56.1126 98.1934 55.7122 98.2715 55.3672 98.4277C55.0286 98.584 54.7617 98.7891 54.5664 99.043C54.3776 99.2969 54.2832 99.5703 54.2832 99.8633H52.4766C52.4766 99.4857 52.5742 99.1113 52.7695 98.7402C52.9648 98.3691 53.2448 98.0339 53.6094 97.7344C53.9805 97.4284 54.4232 97.1875 54.9375 97.0117C55.4583 96.8294 56.0378 96.7383 56.6758 96.7383C57.444 96.7383 58.1211 96.8685 58.707 97.1289C59.2995 97.3893 59.7617 97.7832 60.0938 98.3105C60.4323 98.8314 60.6016 99.4857 60.6016 100.273V105.195C60.6016 105.547 60.6309 105.921 60.6895 106.318C60.7546 106.715 60.849 107.057 60.9727 107.344V107.5H59.0879C58.9967 107.292 58.9251 107.015 58.873 106.67C58.821 106.318 58.7949 105.993 58.7949 105.693ZM59.1074 101.094L59.127 102.363H57.3008C56.7865 102.363 56.3275 102.406 55.9238 102.49C55.5202 102.568 55.1816 102.689 54.9082 102.852C54.6348 103.014 54.4264 103.219 54.2832 103.467C54.14 103.708 54.0684 103.991 54.0684 104.316C54.0684 104.648 54.1432 104.951 54.293 105.225C54.4427 105.498 54.6673 105.716 54.9668 105.879C55.2728 106.035 55.6471 106.113 56.0898 106.113C56.6432 106.113 57.1315 105.996 57.5547 105.762C57.9779 105.527 58.3132 105.241 58.5605 104.902C58.8145 104.564 58.9512 104.235 58.9707 103.916L59.7422 104.785C59.6966 105.059 59.5729 105.361 59.3711 105.693C59.1693 106.025 58.8991 106.344 58.5605 106.65C58.2285 106.95 57.8314 107.201 57.3691 107.402C56.9134 107.598 56.3991 107.695 55.8262 107.695C55.11 107.695 54.4818 107.555 53.9414 107.275C53.4076 106.995 52.9909 106.621 52.6914 106.152C52.3984 105.677 52.252 105.146 52.252 104.561C52.252 103.994 52.3626 103.496 52.584 103.066C52.8053 102.63 53.1243 102.269 53.541 101.982C53.9577 101.689 54.459 101.468 55.0449 101.318C55.6309 101.169 56.2852 101.094 57.0078 101.094H59.1074ZM65.25 99.1895V107.5H63.4434V96.9336H65.1523L65.25 99.1895ZM64.8203 101.816L64.0684 101.787C64.0749 101.064 64.1823 100.397 64.3906 99.7852C64.599 99.1667 64.8919 98.6296 65.2695 98.1738C65.6471 97.7181 66.0964 97.3665 66.6172 97.1191C67.1445 96.8652 67.7272 96.7383 68.3652 96.7383C68.8861 96.7383 69.3548 96.8099 69.7715 96.9531C70.1882 97.0898 70.543 97.3112 70.8359 97.6172C71.1354 97.9232 71.3633 98.3203 71.5195 98.8086C71.6758 99.2904 71.7539 99.8796 71.7539 100.576V107.5H69.9375V100.557C69.9375 100.003 69.8561 99.5605 69.6934 99.2285C69.5306 98.89 69.293 98.6458 68.9805 98.4961C68.668 98.3398 68.2839 98.2617 67.8281 98.2617C67.3789 98.2617 66.9688 98.3561 66.5977 98.5449C66.2331 98.7337 65.9173 98.9941 65.6504 99.3262C65.39 99.6582 65.1849 100.039 65.0352 100.469C64.8919 100.892 64.8203 101.341 64.8203 101.816ZM76.3145 92.5V107.5H74.498V92.5H76.3145ZM82.7695 96.9336L78.1602 101.865L75.582 104.541L75.4355 102.617L77.2812 100.41L80.5625 96.9336H82.7695ZM81.1191 107.5L77.3496 102.461L78.2871 100.85L83.248 107.5H81.1191ZM97.4473 103.906C97.4473 103.574 97.3952 103.281 97.291 103.027C97.1934 102.767 97.0176 102.533 96.7637 102.324C96.5163 102.116 96.1712 101.917 95.7285 101.729C95.2923 101.54 94.7389 101.348 94.0684 101.152C93.3652 100.944 92.7305 100.713 92.1641 100.459C91.5977 100.199 91.1126 99.9023 90.709 99.5703C90.3053 99.2383 89.9961 98.8574 89.7812 98.4277C89.5664 97.998 89.459 97.5065 89.459 96.9531C89.459 96.3997 89.5729 95.8887 89.8008 95.4199C90.0286 94.9512 90.3542 94.5443 90.7773 94.1992C91.207 93.8477 91.7181 93.5742 92.3105 93.3789C92.903 93.1836 93.5638 93.0859 94.293 93.0859C95.3607 93.0859 96.2656 93.291 97.0078 93.7012C97.7565 94.1048 98.3262 94.6354 98.7168 95.293C99.1074 95.944 99.3027 96.6406 99.3027 97.3828H97.4277C97.4277 96.849 97.3138 96.377 97.0859 95.9668C96.8581 95.5501 96.513 95.2246 96.0508 94.9902C95.5885 94.7493 95.0026 94.6289 94.293 94.6289C93.6224 94.6289 93.069 94.7298 92.6328 94.9316C92.1966 95.1335 91.8711 95.4069 91.6562 95.752C91.4479 96.097 91.3438 96.4909 91.3438 96.9336C91.3438 97.2331 91.4056 97.5065 91.5293 97.7539C91.6595 97.9948 91.8581 98.2194 92.125 98.4277C92.3984 98.6361 92.7435 98.8281 93.1602 99.0039C93.5833 99.1797 94.0879 99.349 94.6738 99.5117C95.4811 99.7396 96.1777 99.9935 96.7637 100.273C97.3496 100.553 97.8314 100.869 98.209 101.221C98.5931 101.566 98.8763 101.96 99.0586 102.402C99.2474 102.839 99.3418 103.333 99.3418 103.887C99.3418 104.466 99.2246 104.99 98.9902 105.459C98.7559 105.928 98.4206 106.328 97.9844 106.66C97.5482 106.992 97.0241 107.249 96.4121 107.432C95.8066 107.607 95.1296 107.695 94.3809 107.695C93.7233 107.695 93.0755 107.604 92.4375 107.422C91.806 107.24 91.2298 106.966 90.709 106.602C90.1947 106.237 89.7812 105.788 89.4688 105.254C89.1628 104.714 89.0098 104.089 89.0098 103.379H90.8848C90.8848 103.867 90.9792 104.287 91.168 104.639C91.3568 104.984 91.6139 105.27 91.9395 105.498C92.2715 105.726 92.6458 105.895 93.0625 106.006C93.4857 106.11 93.9251 106.162 94.3809 106.162C95.0384 106.162 95.5951 106.071 96.0508 105.889C96.5065 105.706 96.8516 105.446 97.0859 105.107C97.3268 104.769 97.4473 104.368 97.4473 103.906ZM103.434 96.9336V107.5H101.617V96.9336H103.434ZM101.48 94.1309C101.48 93.8379 101.568 93.5905 101.744 93.3887C101.926 93.1868 102.193 93.0859 102.545 93.0859C102.89 93.0859 103.154 93.1868 103.336 93.3887C103.525 93.5905 103.619 93.8379 103.619 94.1309C103.619 94.4108 103.525 94.6517 103.336 94.8535C103.154 95.0488 102.89 95.1465 102.545 95.1465C102.193 95.1465 101.926 95.0488 101.744 94.8535C101.568 94.6517 101.48 94.4108 101.48 94.1309ZM108.141 99.1895V107.5H106.334V96.9336H108.043L108.141 99.1895ZM107.711 101.816L106.959 101.787C106.965 101.064 107.073 100.397 107.281 99.7852C107.49 99.1667 107.783 98.6296 108.16 98.1738C108.538 97.7181 108.987 97.3665 109.508 97.1191C110.035 96.8652 110.618 96.7383 111.256 96.7383C111.777 96.7383 112.245 96.8099 112.662 96.9531C113.079 97.0898 113.434 97.3112 113.727 97.6172C114.026 97.9232 114.254 98.3203 114.41 98.8086C114.566 99.2904 114.645 99.8796 114.645 100.576V107.5H112.828V100.557C112.828 100.003 112.747 99.5605 112.584 99.2285C112.421 98.89 112.184 98.6458 111.871 98.4961C111.559 98.3398 111.174 98.2617 110.719 98.2617C110.27 98.2617 109.859 98.3561 109.488 98.5449C109.124 98.7337 108.808 98.9941 108.541 99.3262C108.281 99.6582 108.076 100.039 107.926 100.469C107.783 100.892 107.711 101.341 107.711 101.816ZM123.619 105.693V100.254C123.619 99.8372 123.535 99.4759 123.365 99.1699C123.202 98.8574 122.955 98.6165 122.623 98.4473C122.291 98.278 121.881 98.1934 121.393 98.1934C120.937 98.1934 120.536 98.2715 120.191 98.4277C119.853 98.584 119.586 98.7891 119.391 99.043C119.202 99.2969 119.107 99.5703 119.107 99.8633H117.301C117.301 99.4857 117.398 99.1113 117.594 98.7402C117.789 98.3691 118.069 98.0339 118.434 97.7344C118.805 97.4284 119.247 97.1875 119.762 97.0117C120.283 96.8294 120.862 96.7383 121.5 96.7383C122.268 96.7383 122.945 96.8685 123.531 97.1289C124.124 97.3893 124.586 97.7832 124.918 98.3105C125.257 98.8314 125.426 99.4857 125.426 100.273V105.195C125.426 105.547 125.455 105.921 125.514 106.318C125.579 106.715 125.673 107.057 125.797 107.344V107.5H123.912C123.821 107.292 123.749 107.015 123.697 106.67C123.645 106.318 123.619 105.993 123.619 105.693ZM123.932 101.094L123.951 102.363H122.125C121.611 102.363 121.152 102.406 120.748 102.49C120.344 102.568 120.006 102.689 119.732 102.852C119.459 103.014 119.251 103.219 119.107 103.467C118.964 103.708 118.893 103.991 118.893 104.316C118.893 104.648 118.967 104.951 119.117 105.225C119.267 105.498 119.492 105.716 119.791 105.879C120.097 106.035 120.471 106.113 120.914 106.113C121.467 106.113 121.956 105.996 122.379 105.762C122.802 105.527 123.137 105.241 123.385 104.902C123.639 104.564 123.775 104.235 123.795 103.916L124.566 104.785C124.521 105.059 124.397 105.361 124.195 105.693C123.993 106.025 123.723 106.344 123.385 106.65C123.053 106.95 122.656 107.201 122.193 107.402C121.738 107.598 121.223 107.695 120.65 107.695C119.934 107.695 119.306 107.555 118.766 107.275C118.232 106.995 117.815 106.621 117.516 106.152C117.223 105.677 117.076 105.146 117.076 104.561C117.076 103.994 117.187 103.496 117.408 103.066C117.63 102.63 117.949 102.269 118.365 101.982C118.782 101.689 119.283 101.468 119.869 101.318C120.455 101.169 121.109 101.094 121.832 101.094H123.932ZM132.691 96.9336V98.3203H126.979V96.9336H132.691ZM128.912 94.3652H130.719V104.883C130.719 105.241 130.774 105.511 130.885 105.693C130.995 105.876 131.139 105.996 131.314 106.055C131.49 106.113 131.679 106.143 131.881 106.143C132.031 106.143 132.187 106.13 132.35 106.104C132.519 106.071 132.646 106.045 132.73 106.025L132.74 107.5C132.597 107.546 132.408 107.588 132.174 107.627C131.946 107.673 131.669 107.695 131.344 107.695C130.901 107.695 130.494 107.607 130.123 107.432C129.752 107.256 129.456 106.963 129.234 106.553C129.02 106.136 128.912 105.576 128.912 104.873V94.3652ZM136.617 98.5938V107.5H134.811V96.9336H136.568L136.617 98.5938ZM139.918 96.875L139.908 98.5547C139.758 98.5221 139.615 98.5026 139.479 98.4961C139.348 98.4831 139.199 98.4766 139.029 98.4766C138.613 98.4766 138.245 98.5417 137.926 98.6719C137.607 98.8021 137.337 98.9844 137.115 99.2188C136.894 99.4531 136.718 99.7331 136.588 100.059C136.464 100.378 136.383 100.729 136.344 101.113L135.836 101.406C135.836 100.768 135.898 100.169 136.021 99.6094C136.152 99.0495 136.35 98.5547 136.617 98.125C136.884 97.6888 137.223 97.3503 137.633 97.1094C138.049 96.862 138.544 96.7383 139.117 96.7383C139.247 96.7383 139.397 96.7546 139.566 96.7871C139.736 96.8132 139.853 96.8424 139.918 96.875ZM147.428 105.693V100.254C147.428 99.8372 147.343 99.4759 147.174 99.1699C147.011 98.8574 146.764 98.6165 146.432 98.4473C146.1 98.278 145.689 98.1934 145.201 98.1934C144.745 98.1934 144.345 98.2715 144 98.4277C143.661 98.584 143.395 98.7891 143.199 99.043C143.01 99.2969 142.916 99.5703 142.916 99.8633H141.109C141.109 99.4857 141.207 99.1113 141.402 98.7402C141.598 98.3691 141.878 98.0339 142.242 97.7344C142.613 97.4284 143.056 97.1875 143.57 97.0117C144.091 96.8294 144.671 96.7383 145.309 96.7383C146.077 96.7383 146.754 96.8685 147.34 97.1289C147.932 97.3893 148.395 97.7832 148.727 98.3105C149.065 98.8314 149.234 99.4857 149.234 100.273V105.195C149.234 105.547 149.264 105.921 149.322 106.318C149.387 106.715 149.482 107.057 149.605 107.344V107.5H147.721C147.63 107.292 147.558 107.015 147.506 106.67C147.454 106.318 147.428 105.993 147.428 105.693ZM147.74 101.094L147.76 102.363H145.934C145.419 102.363 144.96 102.406 144.557 102.49C144.153 102.568 143.814 102.689 143.541 102.852C143.268 103.014 143.059 103.219 142.916 103.467C142.773 103.708 142.701 103.991 142.701 104.316C142.701 104.648 142.776 104.951 142.926 105.225C143.076 105.498 143.3 105.716 143.6 105.879C143.906 106.035 144.28 106.113 144.723 106.113C145.276 106.113 145.764 105.996 146.188 105.762C146.611 105.527 146.946 105.241 147.193 104.902C147.447 104.564 147.584 104.235 147.604 103.916L148.375 104.785C148.329 105.059 148.206 105.361 148.004 105.693C147.802 106.025 147.532 106.344 147.193 106.65C146.861 106.95 146.464 107.201 146.002 107.402C145.546 107.598 145.032 107.695 144.459 107.695C143.743 107.695 143.115 107.555 142.574 107.275C142.04 106.995 141.624 106.621 141.324 106.152C141.031 105.677 140.885 105.146 140.885 104.561C140.885 103.994 140.995 103.496 141.217 103.066C141.438 102.63 141.757 102.269 142.174 101.982C142.59 101.689 143.092 101.468 143.678 101.318C144.264 101.169 144.918 101.094 145.641 101.094H147.74Z" fill="white"/>
<path d="M44.2344 154.979H46.1094C46.0117 155.877 45.7546 156.681 45.3379 157.391C44.9212 158.1 44.332 158.663 43.5703 159.08C42.8086 159.49 41.8581 159.695 40.7188 159.695C39.8854 159.695 39.127 159.539 38.4434 159.227C37.7663 158.914 37.1836 158.471 36.6953 157.898C36.207 157.319 35.8294 156.626 35.5625 155.818C35.3021 155.005 35.1719 154.1 35.1719 153.104V151.688C35.1719 150.691 35.3021 149.79 35.5625 148.982C35.8294 148.169 36.2103 147.472 36.7051 146.893C37.2064 146.313 37.8086 145.867 38.5117 145.555C39.2148 145.242 40.0059 145.086 40.8848 145.086C41.959 145.086 42.8672 145.288 43.6094 145.691C44.3516 146.095 44.9277 146.655 45.3379 147.371C45.7546 148.081 46.0117 148.904 46.1094 149.842H44.2344C44.1432 149.178 43.974 148.608 43.7266 148.133C43.4792 147.651 43.1276 147.28 42.6719 147.02C42.2161 146.759 41.6204 146.629 40.8848 146.629C40.2533 146.629 39.6966 146.749 39.2148 146.99C38.7396 147.231 38.3392 147.573 38.0137 148.016C37.6947 148.458 37.4538 148.989 37.291 149.607C37.1283 150.226 37.0469 150.913 37.0469 151.668V153.104C37.0469 153.8 37.1185 154.454 37.2617 155.066C37.4115 155.678 37.6361 156.215 37.9355 156.678C38.235 157.14 38.6159 157.505 39.0781 157.771C39.5404 158.032 40.0872 158.162 40.7188 158.162C41.5195 158.162 42.1576 158.035 42.6328 157.781C43.1081 157.527 43.4661 157.163 43.707 156.688C43.9544 156.212 44.1302 155.643 44.2344 154.979ZM54.6348 157.693V152.254C54.6348 151.837 54.5501 151.476 54.3809 151.17C54.2181 150.857 53.9707 150.617 53.6387 150.447C53.3066 150.278 52.8965 150.193 52.4082 150.193C51.9525 150.193 51.5521 150.271 51.207 150.428C50.8685 150.584 50.6016 150.789 50.4062 151.043C50.2174 151.297 50.123 151.57 50.123 151.863H48.3164C48.3164 151.486 48.4141 151.111 48.6094 150.74C48.8047 150.369 49.0846 150.034 49.4492 149.734C49.8203 149.428 50.263 149.188 50.7773 149.012C51.2982 148.829 51.8776 148.738 52.5156 148.738C53.2839 148.738 53.9609 148.868 54.5469 149.129C55.1393 149.389 55.6016 149.783 55.9336 150.311C56.2721 150.831 56.4414 151.486 56.4414 152.273V157.195C56.4414 157.547 56.4707 157.921 56.5293 158.318C56.5944 158.715 56.6888 159.057 56.8125 159.344V159.5H54.9277C54.8366 159.292 54.765 159.015 54.7129 158.67C54.6608 158.318 54.6348 157.993 54.6348 157.693ZM54.9473 153.094L54.9668 154.363H53.1406C52.6263 154.363 52.1673 154.406 51.7637 154.49C51.36 154.568 51.0215 154.689 50.748 154.852C50.4746 155.014 50.2663 155.219 50.123 155.467C49.9798 155.708 49.9082 155.991 49.9082 156.316C49.9082 156.648 49.9831 156.951 50.1328 157.225C50.2826 157.498 50.5072 157.716 50.8066 157.879C51.1126 158.035 51.487 158.113 51.9297 158.113C52.4831 158.113 52.9714 157.996 53.3945 157.762C53.8177 157.527 54.153 157.241 54.4004 156.902C54.6543 156.564 54.791 156.235 54.8105 155.916L55.582 156.785C55.5365 157.059 55.4128 157.361 55.2109 157.693C55.0091 158.025 54.7389 158.344 54.4004 158.65C54.0684 158.95 53.6712 159.201 53.209 159.402C52.7533 159.598 52.2389 159.695 51.666 159.695C50.9499 159.695 50.3216 159.555 49.7812 159.275C49.2474 158.995 48.8307 158.621 48.5312 158.152C48.2383 157.677 48.0918 157.146 48.0918 156.561C48.0918 155.994 48.2025 155.496 48.4238 155.066C48.6452 154.63 48.9642 154.269 49.3809 153.982C49.7975 153.689 50.2988 153.468 50.8848 153.318C51.4707 153.169 52.125 153.094 52.8477 153.094H54.9473ZM61.2461 144.5V159.5H59.4297V144.5H61.2461ZM67.3594 157.869L70.25 148.934H72.0957L68.2969 159.5H67.0859L67.3594 157.869ZM64.9473 148.934L67.9258 157.918L68.1309 159.5H66.9199L63.0918 148.934H64.9473ZM75.7969 148.934V159.5H73.9805V148.934H75.7969ZM73.8438 146.131C73.8438 145.838 73.9316 145.59 74.1074 145.389C74.2897 145.187 74.5566 145.086 74.9082 145.086C75.2533 145.086 75.5169 145.187 75.6992 145.389C75.888 145.59 75.9824 145.838 75.9824 146.131C75.9824 146.411 75.888 146.652 75.6992 146.854C75.5169 147.049 75.2533 147.146 74.9082 147.146C74.5566 147.146 74.2897 147.049 74.1074 146.854C73.9316 146.652 73.8438 146.411 73.8438 146.131ZM80.5039 151.189V159.5H78.6973V148.934H80.4062L80.5039 151.189ZM80.0742 153.816L79.3223 153.787C79.3288 153.064 79.4362 152.397 79.6445 151.785C79.8529 151.167 80.1458 150.63 80.5234 150.174C80.901 149.718 81.3503 149.367 81.8711 149.119C82.3984 148.865 82.9811 148.738 83.6191 148.738C84.14 148.738 84.6087 148.81 85.0254 148.953C85.4421 149.09 85.7969 149.311 86.0898 149.617C86.3893 149.923 86.6172 150.32 86.7734 150.809C86.9297 151.29 87.0078 151.88 87.0078 152.576V159.5H85.1914V152.557C85.1914 152.003 85.11 151.561 84.9473 151.229C84.7845 150.89 84.5469 150.646 84.2344 150.496C83.9219 150.34 83.5378 150.262 83.082 150.262C82.6328 150.262 82.2227 150.356 81.8516 150.545C81.487 150.734 81.1712 150.994 80.9043 151.326C80.6439 151.658 80.4388 152.039 80.2891 152.469C80.1458 152.892 80.0742 153.341 80.0742 153.816ZM104.273 151.395V152.928H96.5781V151.395H104.273ZM96.8711 145.281V159.5H94.9863V145.281H96.8711ZM105.914 145.281V159.5H104.039V145.281H105.914ZM115.221 157.693V152.254C115.221 151.837 115.136 151.476 114.967 151.17C114.804 150.857 114.557 150.617 114.225 150.447C113.893 150.278 113.482 150.193 112.994 150.193C112.538 150.193 112.138 150.271 111.793 150.428C111.454 150.584 111.188 150.789 110.992 151.043C110.803 151.297 110.709 151.57 110.709 151.863H108.902C108.902 151.486 109 151.111 109.195 150.74C109.391 150.369 109.671 150.034 110.035 149.734C110.406 149.428 110.849 149.188 111.363 149.012C111.884 148.829 112.464 148.738 113.102 148.738C113.87 148.738 114.547 148.868 115.133 149.129C115.725 149.389 116.188 149.783 116.52 150.311C116.858 150.831 117.027 151.486 117.027 152.273V157.195C117.027 157.547 117.057 157.921 117.115 158.318C117.18 158.715 117.275 159.057 117.398 159.344V159.5H115.514C115.423 159.292 115.351 159.015 115.299 158.67C115.247 158.318 115.221 157.993 115.221 157.693ZM115.533 153.094L115.553 154.363H113.727C113.212 154.363 112.753 154.406 112.35 154.49C111.946 154.568 111.607 154.689 111.334 154.852C111.061 155.014 110.852 155.219 110.709 155.467C110.566 155.708 110.494 155.991 110.494 156.316C110.494 156.648 110.569 156.951 110.719 157.225C110.868 157.498 111.093 157.716 111.393 157.879C111.699 158.035 112.073 158.113 112.516 158.113C113.069 158.113 113.557 157.996 113.98 157.762C114.404 157.527 114.739 157.241 114.986 156.902C115.24 156.564 115.377 156.235 115.396 155.916L116.168 156.785C116.122 157.059 115.999 157.361 115.797 157.693C115.595 158.025 115.325 158.344 114.986 158.65C114.654 158.95 114.257 159.201 113.795 159.402C113.339 159.598 112.825 159.695 112.252 159.695C111.536 159.695 110.908 159.555 110.367 159.275C109.833 158.995 109.417 158.621 109.117 158.152C108.824 157.677 108.678 157.146 108.678 156.561C108.678 155.994 108.788 155.496 109.01 155.066C109.231 154.63 109.55 154.269 109.967 153.982C110.383 153.689 110.885 153.468 111.471 153.318C112.057 153.169 112.711 153.094 113.434 153.094H115.533ZM121.676 150.594V159.5H119.869V148.934H121.627L121.676 150.594ZM124.977 148.875L124.967 150.555C124.817 150.522 124.674 150.503 124.537 150.496C124.407 150.483 124.257 150.477 124.088 150.477C123.671 150.477 123.303 150.542 122.984 150.672C122.665 150.802 122.395 150.984 122.174 151.219C121.952 151.453 121.777 151.733 121.646 152.059C121.523 152.378 121.441 152.729 121.402 153.113L120.895 153.406C120.895 152.768 120.956 152.169 121.08 151.609C121.21 151.049 121.409 150.555 121.676 150.125C121.943 149.689 122.281 149.35 122.691 149.109C123.108 148.862 123.603 148.738 124.176 148.738C124.306 148.738 124.456 148.755 124.625 148.787C124.794 148.813 124.911 148.842 124.977 148.875ZM128.453 150.594V159.5H126.646V148.934H128.404L128.453 150.594ZM131.754 148.875L131.744 150.555C131.594 150.522 131.451 150.503 131.314 150.496C131.184 150.483 131.035 150.477 130.865 150.477C130.449 150.477 130.081 150.542 129.762 150.672C129.443 150.802 129.173 150.984 128.951 151.219C128.73 151.453 128.554 151.733 128.424 152.059C128.3 152.378 128.219 152.729 128.18 153.113L127.672 153.406C127.672 152.768 127.734 152.169 127.857 151.609C127.988 151.049 128.186 150.555 128.453 150.125C128.72 149.689 129.059 149.35 129.469 149.109C129.885 148.862 130.38 148.738 130.953 148.738C131.083 148.738 131.233 148.755 131.402 148.787C131.572 148.813 131.689 148.842 131.754 148.875ZM135.387 148.934V159.5H133.57V148.934H135.387ZM133.434 146.131C133.434 145.838 133.521 145.59 133.697 145.389C133.88 145.187 134.146 145.086 134.498 145.086C134.843 145.086 135.107 145.187 135.289 145.389C135.478 145.59 135.572 145.838 135.572 146.131C135.572 146.411 135.478 146.652 135.289 146.854C135.107 147.049 134.843 147.146 134.498 147.146C134.146 147.146 133.88 147.049 133.697 146.854C133.521 146.652 133.434 146.411 133.434 146.131ZM144.439 156.697C144.439 156.437 144.381 156.196 144.264 155.975C144.153 155.747 143.922 155.542 143.57 155.359C143.225 155.171 142.704 155.008 142.008 154.871C141.422 154.747 140.891 154.601 140.416 154.432C139.947 154.262 139.547 154.057 139.215 153.816C138.889 153.576 138.639 153.292 138.463 152.967C138.287 152.641 138.199 152.26 138.199 151.824C138.199 151.408 138.29 151.014 138.473 150.643C138.661 150.271 138.925 149.943 139.264 149.656C139.609 149.37 140.022 149.145 140.504 148.982C140.986 148.82 141.523 148.738 142.115 148.738C142.962 148.738 143.684 148.888 144.283 149.188C144.882 149.487 145.341 149.887 145.66 150.389C145.979 150.883 146.139 151.434 146.139 152.039H144.332C144.332 151.746 144.244 151.463 144.068 151.189C143.899 150.91 143.648 150.678 143.316 150.496C142.991 150.314 142.59 150.223 142.115 150.223C141.614 150.223 141.207 150.301 140.895 150.457C140.589 150.607 140.364 150.799 140.221 151.033C140.084 151.268 140.016 151.515 140.016 151.775C140.016 151.971 140.048 152.146 140.113 152.303C140.185 152.452 140.309 152.592 140.484 152.723C140.66 152.846 140.908 152.964 141.227 153.074C141.546 153.185 141.952 153.296 142.447 153.406C143.313 153.602 144.026 153.836 144.586 154.109C145.146 154.383 145.562 154.718 145.836 155.115C146.109 155.512 146.246 155.994 146.246 156.561C146.246 157.023 146.148 157.446 145.953 157.83C145.764 158.214 145.488 158.546 145.123 158.826C144.765 159.1 144.335 159.314 143.834 159.471C143.339 159.62 142.783 159.695 142.164 159.695C141.233 159.695 140.445 159.529 139.801 159.197C139.156 158.865 138.668 158.436 138.336 157.908C138.004 157.381 137.838 156.824 137.838 156.238H139.654C139.68 156.733 139.824 157.127 140.084 157.42C140.344 157.706 140.663 157.911 141.041 158.035C141.419 158.152 141.793 158.211 142.164 158.211C142.659 158.211 143.072 158.146 143.404 158.016C143.743 157.885 144 157.706 144.176 157.479C144.352 157.251 144.439 156.99 144.439 156.697Z" fill="white"/>
<path d="M45.1914 209.967V211.5H35.5625V209.967H45.1914ZM44.8789 198.648L36.0117 211.5H34.8496V210.094L43.707 197.281H44.8789V198.648ZM44.0781 197.281V198.824H34.9766V197.281H44.0781ZM49.1758 196.5V211.5H47.3691V196.5H49.1758ZM48.7461 205.816L47.9941 205.787C48.0007 205.064 48.1081 204.397 48.3164 203.785C48.5247 203.167 48.8177 202.63 49.1953 202.174C49.5729 201.718 50.0221 201.367 50.543 201.119C51.0703 200.865 51.653 200.738 52.291 200.738C52.8118 200.738 53.2806 200.81 53.6973 200.953C54.1139 201.09 54.4688 201.311 54.7617 201.617C55.0612 201.923 55.2891 202.32 55.4453 202.809C55.6016 203.29 55.6797 203.88 55.6797 204.576V211.5H53.8633V204.557C53.8633 204.003 53.7819 203.561 53.6191 203.229C53.4564 202.89 53.2188 202.646 52.9062 202.496C52.5938 202.34 52.2096 202.262 51.7539 202.262C51.3047 202.262 50.8945 202.356 50.5234 202.545C50.1589 202.734 49.8431 202.994 49.5762 203.326C49.3158 203.658 49.1107 204.039 48.9609 204.469C48.8177 204.892 48.7461 205.341 48.7461 205.816ZM64.8496 209.059V200.934H66.666V211.5H64.9375L64.8496 209.059ZM65.1914 206.832L65.9434 206.812C65.9434 207.516 65.8685 208.167 65.7188 208.766C65.5755 209.358 65.3411 209.872 65.0156 210.309C64.6901 210.745 64.2637 211.087 63.7363 211.334C63.209 211.575 62.5677 211.695 61.8125 211.695C61.2982 211.695 60.8262 211.62 60.3965 211.471C59.9733 211.321 59.6087 211.09 59.3027 210.777C58.9967 210.465 58.7591 210.058 58.5898 209.557C58.4271 209.055 58.3457 208.453 58.3457 207.75V200.934H60.1523V207.77C60.1523 208.245 60.2044 208.639 60.3086 208.951C60.4193 209.257 60.5658 209.501 60.748 209.684C60.9368 209.859 61.1452 209.983 61.373 210.055C61.6074 210.126 61.8483 210.162 62.0957 210.162C62.8639 210.162 63.4727 210.016 63.9219 209.723C64.3711 209.423 64.6934 209.023 64.8887 208.521C65.0905 208.014 65.1914 207.451 65.1914 206.832Z" fill="white"/>
<path d="M40.9141 250.541L36.207 263.5H34.2832L39.7031 249.281H40.9434L40.9141 250.541ZM44.8594 263.5L40.1426 250.541L40.1133 249.281H41.3535L46.793 263.5H44.8594ZM44.6152 258.236V259.779H36.627V258.236H44.6152ZM50.2305 254.594V263.5H48.4238V252.934H50.1816L50.2305 254.594ZM53.5312 252.875L53.5215 254.555C53.3717 254.522 53.2285 254.503 53.0918 254.496C52.9616 254.483 52.8118 254.477 52.6426 254.477C52.2259 254.477 51.8581 254.542 51.5391 254.672C51.2201 254.802 50.9499 254.984 50.7285 255.219C50.5072 255.453 50.3314 255.733 50.2012 256.059C50.0775 256.378 49.9961 256.729 49.957 257.113L49.4492 257.406C49.4492 256.768 49.5111 256.169 49.6348 255.609C49.765 255.049 49.9635 254.555 50.2305 254.125C50.4974 253.689 50.8359 253.35 51.2461 253.109C51.6628 252.862 52.1576 252.738 52.7305 252.738C52.8607 252.738 53.0104 252.755 53.1797 252.787C53.349 252.813 53.4661 252.842 53.5312 252.875ZM59.2344 262.211C59.6641 262.211 60.0612 262.123 60.4258 261.947C60.7904 261.771 61.0898 261.531 61.3242 261.225C61.5586 260.912 61.6921 260.557 61.7246 260.16H63.4434C63.4108 260.785 63.1992 261.368 62.8086 261.908C62.4245 262.442 61.9199 262.875 61.2949 263.207C60.6699 263.533 59.9831 263.695 59.2344 263.695C58.4401 263.695 57.7467 263.555 57.1543 263.275C56.5684 262.995 56.0801 262.611 55.6895 262.123C55.3053 261.635 55.0156 261.075 54.8203 260.443C54.6315 259.805 54.5371 259.132 54.5371 258.422V258.012C54.5371 257.302 54.6315 256.632 54.8203 256C55.0156 255.362 55.3053 254.799 55.6895 254.311C56.0801 253.822 56.5684 253.438 57.1543 253.158C57.7467 252.878 58.4401 252.738 59.2344 252.738C60.0612 252.738 60.7839 252.908 61.4023 253.246C62.0208 253.578 62.5059 254.034 62.8574 254.613C63.2155 255.186 63.4108 255.837 63.4434 256.566H61.7246C61.6921 256.13 61.5684 255.736 61.3535 255.385C61.1452 255.033 60.8587 254.753 60.4941 254.545C60.1361 254.33 59.7161 254.223 59.2344 254.223C58.681 254.223 58.2155 254.333 57.8379 254.555C57.4668 254.77 57.1706 255.062 56.9492 255.434C56.7344 255.798 56.5781 256.205 56.4805 256.654C56.3893 257.097 56.3438 257.549 56.3438 258.012V258.422C56.3438 258.884 56.3893 259.34 56.4805 259.789C56.5716 260.238 56.7246 260.645 56.9395 261.01C57.1608 261.374 57.457 261.667 57.8281 261.889C58.2057 262.104 58.6745 262.211 59.2344 262.211ZM69.8984 252.934V254.32H64.1855V252.934H69.8984ZM66.1191 250.365H67.9258V260.883C67.9258 261.241 67.9811 261.511 68.0918 261.693C68.2025 261.876 68.3457 261.996 68.5215 262.055C68.6973 262.113 68.8861 262.143 69.0879 262.143C69.2376 262.143 69.3939 262.13 69.5566 262.104C69.7259 262.071 69.8529 262.045 69.9375 262.025L69.9473 263.5C69.804 263.546 69.6152 263.588 69.3809 263.627C69.153 263.673 68.8763 263.695 68.5508 263.695C68.1081 263.695 67.7012 263.607 67.3301 263.432C66.959 263.256 66.6628 262.963 66.4414 262.553C66.2266 262.136 66.1191 261.576 66.1191 260.873V250.365ZM73.9805 252.934V263.5H72.1641V252.934H73.9805ZM72.0273 250.131C72.0273 249.838 72.1152 249.59 72.291 249.389C72.4733 249.187 72.7402 249.086 73.0918 249.086C73.4368 249.086 73.7005 249.187 73.8828 249.389C74.0716 249.59 74.166 249.838 74.166 250.131C74.166 250.411 74.0716 250.652 73.8828 250.854C73.7005 251.049 73.4368 251.146 73.0918 251.146C72.7402 251.146 72.4733 251.049 72.291 250.854C72.1152 250.652 72.0273 250.411 72.0273 250.131ZM81.1094 262.211C81.5391 262.211 81.9362 262.123 82.3008 261.947C82.6654 261.771 82.9648 261.531 83.1992 261.225C83.4336 260.912 83.5671 260.557 83.5996 260.16H85.3184C85.2858 260.785 85.0742 261.368 84.6836 261.908C84.2995 262.442 83.7949 262.875 83.1699 263.207C82.5449 263.533 81.8581 263.695 81.1094 263.695C80.3151 263.695 79.6217 263.555 79.0293 263.275C78.4434 262.995 77.9551 262.611 77.5645 262.123C77.1803 261.635 76.8906 261.075 76.6953 260.443C76.5065 259.805 76.4121 259.132 76.4121 258.422V258.012C76.4121 257.302 76.5065 256.632 76.6953 256C76.8906 255.362 77.1803 254.799 77.5645 254.311C77.9551 253.822 78.4434 253.438 79.0293 253.158C79.6217 252.878 80.3151 252.738 81.1094 252.738C81.9362 252.738 82.6589 252.908 83.2773 253.246C83.8958 253.578 84.3809 254.034 84.7324 254.613C85.0905 255.186 85.2858 255.837 85.3184 256.566H83.5996C83.5671 256.13 83.4434 255.736 83.2285 255.385C83.0202 255.033 82.7337 254.753 82.3691 254.545C82.0111 254.33 81.5911 254.223 81.1094 254.223C80.556 254.223 80.0905 254.333 79.7129 254.555C79.3418 254.77 79.0456 255.062 78.8242 255.434C78.6094 255.798 78.4531 256.205 78.3555 256.654C78.2643 257.097 78.2188 257.549 78.2188 258.012V258.422C78.2188 258.884 78.2643 259.34 78.3555 259.789C78.4466 260.238 78.5996 260.645 78.8145 261.01C79.0358 261.374 79.332 261.667 79.7031 261.889C80.0807 262.104 80.5495 262.211 81.1094 262.211ZM93.1797 249.281H95.0059L99.6641 260.873L104.312 249.281H106.148L100.367 263.5H98.9414L93.1797 249.281ZM92.584 249.281H94.1953L94.459 257.953V263.5H92.584V249.281ZM105.123 249.281H106.734V263.5H104.859V257.953L105.123 249.281ZM109.293 258.334V258.109C109.293 257.348 109.404 256.641 109.625 255.99C109.846 255.333 110.165 254.763 110.582 254.281C110.999 253.793 111.503 253.415 112.096 253.148C112.688 252.875 113.352 252.738 114.088 252.738C114.83 252.738 115.497 252.875 116.09 253.148C116.689 253.415 117.197 253.793 117.613 254.281C118.036 254.763 118.359 255.333 118.58 255.99C118.801 256.641 118.912 257.348 118.912 258.109V258.334C118.912 259.096 118.801 259.802 118.58 260.453C118.359 261.104 118.036 261.674 117.613 262.162C117.197 262.644 116.692 263.021 116.1 263.295C115.514 263.562 114.85 263.695 114.107 263.695C113.365 263.695 112.698 263.562 112.105 263.295C111.513 263.021 111.005 262.644 110.582 262.162C110.165 261.674 109.846 261.104 109.625 260.453C109.404 259.802 109.293 259.096 109.293 258.334ZM111.1 258.109V258.334C111.1 258.861 111.161 259.359 111.285 259.828C111.409 260.29 111.594 260.701 111.842 261.059C112.096 261.417 112.411 261.7 112.789 261.908C113.167 262.11 113.606 262.211 114.107 262.211C114.602 262.211 115.035 262.11 115.406 261.908C115.784 261.7 116.096 261.417 116.344 261.059C116.591 260.701 116.777 260.29 116.9 259.828C117.031 259.359 117.096 258.861 117.096 258.334V258.109C117.096 257.589 117.031 257.097 116.9 256.635C116.777 256.166 116.588 255.753 116.334 255.395C116.087 255.03 115.774 254.743 115.396 254.535C115.025 254.327 114.589 254.223 114.088 254.223C113.593 254.223 113.157 254.327 112.779 254.535C112.408 254.743 112.096 255.03 111.842 255.395C111.594 255.753 111.409 256.166 111.285 256.635C111.161 257.097 111.1 257.589 111.1 258.109ZM122.984 255.189V263.5H121.178V252.934H122.887L122.984 255.189ZM122.555 257.816L121.803 257.787C121.809 257.064 121.917 256.397 122.125 255.785C122.333 255.167 122.626 254.63 123.004 254.174C123.382 253.718 123.831 253.367 124.352 253.119C124.879 252.865 125.462 252.738 126.1 252.738C126.62 252.738 127.089 252.81 127.506 252.953C127.923 253.09 128.277 253.311 128.57 253.617C128.87 253.923 129.098 254.32 129.254 254.809C129.41 255.29 129.488 255.88 129.488 256.576V263.5H127.672V256.557C127.672 256.003 127.59 255.561 127.428 255.229C127.265 254.89 127.027 254.646 126.715 254.496C126.402 254.34 126.018 254.262 125.562 254.262C125.113 254.262 124.703 254.356 124.332 254.545C123.967 254.734 123.652 254.994 123.385 255.326C123.124 255.658 122.919 256.039 122.77 256.469C122.626 256.892 122.555 257.341 122.555 257.816ZM134.049 248.5V263.5H132.232V248.5H134.049ZM140.504 252.934L135.895 257.865L133.316 260.541L133.17 258.617L135.016 256.41L138.297 252.934H140.504ZM138.854 263.5L135.084 258.461L136.021 256.85L140.982 263.5H138.854ZM146.559 263.695C145.823 263.695 145.156 263.572 144.557 263.324C143.964 263.07 143.453 262.715 143.023 262.26C142.6 261.804 142.275 261.264 142.047 260.639C141.819 260.014 141.705 259.33 141.705 258.588V258.178C141.705 257.318 141.832 256.553 142.086 255.883C142.34 255.206 142.685 254.633 143.121 254.164C143.557 253.695 144.052 253.34 144.605 253.1C145.159 252.859 145.732 252.738 146.324 252.738C147.079 252.738 147.73 252.868 148.277 253.129C148.831 253.389 149.283 253.754 149.635 254.223C149.986 254.685 150.247 255.232 150.416 255.863C150.585 256.488 150.67 257.172 150.67 257.914V258.725H142.779V257.25H148.863V257.113C148.837 256.645 148.74 256.189 148.57 255.746C148.408 255.303 148.147 254.939 147.789 254.652C147.431 254.366 146.943 254.223 146.324 254.223C145.914 254.223 145.536 254.311 145.191 254.486C144.846 254.656 144.55 254.91 144.303 255.248C144.055 255.587 143.863 256 143.727 256.488C143.59 256.977 143.521 257.54 143.521 258.178V258.588C143.521 259.089 143.59 259.561 143.727 260.004C143.87 260.44 144.075 260.824 144.342 261.156C144.615 261.488 144.944 261.749 145.328 261.938C145.719 262.126 146.161 262.221 146.656 262.221C147.294 262.221 147.835 262.09 148.277 261.83C148.72 261.57 149.107 261.221 149.439 260.785L150.533 261.654C150.305 261.999 150.016 262.328 149.664 262.641C149.312 262.953 148.88 263.207 148.365 263.402C147.857 263.598 147.255 263.695 146.559 263.695ZM155.611 262.406L158.551 252.934H160.484L156.246 265.131C156.148 265.391 156.018 265.671 155.855 265.971C155.699 266.277 155.497 266.566 155.25 266.84C155.003 267.113 154.703 267.335 154.352 267.504C154.007 267.68 153.593 267.768 153.111 267.768C152.968 267.768 152.786 267.748 152.564 267.709C152.343 267.67 152.187 267.637 152.096 267.611L152.086 266.146C152.138 266.153 152.219 266.16 152.33 266.166C152.447 266.179 152.529 266.186 152.574 266.186C152.984 266.186 153.333 266.13 153.619 266.02C153.906 265.915 154.146 265.736 154.342 265.482C154.544 265.235 154.716 264.893 154.859 264.457L155.611 262.406ZM153.453 252.934L156.197 261.137L156.666 263.041L155.367 263.705L151.48 252.934H153.453ZM168.268 260.697C168.268 260.437 168.209 260.196 168.092 259.975C167.981 259.747 167.75 259.542 167.398 259.359C167.053 259.171 166.533 259.008 165.836 258.871C165.25 258.747 164.719 258.601 164.244 258.432C163.775 258.262 163.375 258.057 163.043 257.816C162.717 257.576 162.467 257.292 162.291 256.967C162.115 256.641 162.027 256.26 162.027 255.824C162.027 255.408 162.118 255.014 162.301 254.643C162.49 254.271 162.753 253.943 163.092 253.656C163.437 253.37 163.85 253.145 164.332 252.982C164.814 252.82 165.351 252.738 165.943 252.738C166.79 252.738 167.512 252.888 168.111 253.188C168.71 253.487 169.169 253.887 169.488 254.389C169.807 254.883 169.967 255.434 169.967 256.039H168.16C168.16 255.746 168.072 255.463 167.896 255.189C167.727 254.91 167.477 254.678 167.145 254.496C166.819 254.314 166.419 254.223 165.943 254.223C165.442 254.223 165.035 254.301 164.723 254.457C164.417 254.607 164.192 254.799 164.049 255.033C163.912 255.268 163.844 255.515 163.844 255.775C163.844 255.971 163.876 256.146 163.941 256.303C164.013 256.452 164.137 256.592 164.312 256.723C164.488 256.846 164.736 256.964 165.055 257.074C165.374 257.185 165.781 257.296 166.275 257.406C167.141 257.602 167.854 257.836 168.414 258.109C168.974 258.383 169.391 258.718 169.664 259.115C169.938 259.512 170.074 259.994 170.074 260.561C170.074 261.023 169.977 261.446 169.781 261.83C169.592 262.214 169.316 262.546 168.951 262.826C168.593 263.1 168.163 263.314 167.662 263.471C167.167 263.62 166.611 263.695 165.992 263.695C165.061 263.695 164.273 263.529 163.629 263.197C162.984 262.865 162.496 262.436 162.164 261.908C161.832 261.381 161.666 260.824 161.666 260.238H163.482C163.508 260.733 163.652 261.127 163.912 261.42C164.173 261.706 164.492 261.911 164.869 262.035C165.247 262.152 165.621 262.211 165.992 262.211C166.487 262.211 166.9 262.146 167.232 262.016C167.571 261.885 167.828 261.706 168.004 261.479C168.18 261.251 168.268 260.99 168.268 260.697Z" fill="white"/>
<rect x="209" y="34" width="4" height="237" rx="2" fill="#4B4949"/>
<rect x="209" y="34" width="4" height="65" rx="2" fill="white"/>
</svg>
