<svg width="250" height="305" viewBox="0 0 250 305" fill="none" xmlns="http://www.w3.org/2000/svg">
<rect width="250" height="305" rx="12" fill="#313131"/>
<path d="M40.8945 49.9238H37.0957V48.3906H40.8945C41.6302 48.3906 42.2259 48.2734 42.6816 48.0391C43.1374 47.8047 43.4694 47.4792 43.6777 47.0625C43.8926 46.6458 44 46.1706 44 45.6367C44 45.1484 43.8926 44.6895 43.6777 44.2598C43.4694 43.8301 43.1374 43.485 42.6816 43.2246C42.2259 42.9577 41.6302 42.8242 40.8945 42.8242H37.5352V55.5H35.6504V41.2812H40.8945C41.9688 41.2812 42.877 41.4668 43.6191 41.8379C44.3613 42.209 44.9245 42.7233 45.3086 43.3809C45.6927 44.0319 45.8848 44.7773 45.8848 45.6172C45.8848 46.5286 45.6927 47.3066 45.3086 47.9512C44.9245 48.5957 44.3613 49.0872 43.6191 49.4258C42.877 49.7578 41.9688 49.9238 40.8945 49.9238ZM47.3789 50.334V50.1094C47.3789 49.3477 47.4896 48.6413 47.7109 47.9902C47.9323 47.3327 48.2513 46.763 48.668 46.2812C49.0846 45.793 49.5892 45.4154 50.1816 45.1484C50.7741 44.875 51.4382 44.7383 52.1738 44.7383C52.916 44.7383 53.5833 44.875 54.1758 45.1484C54.7747 45.4154 55.2826 45.793 55.6992 46.2812C56.1224 46.763 56.4447 47.3327 56.666 47.9902C56.8874 48.6413 56.998 49.3477 56.998 50.1094V50.334C56.998 51.0957 56.8874 51.8021 56.666 52.4531C56.4447 53.1042 56.1224 53.6738 55.6992 54.1621C55.2826 54.6439 54.778 55.0215 54.1855 55.2949C53.5996 55.5618 52.9355 55.6953 52.1934 55.6953C51.4512 55.6953 50.7839 55.5618 50.1914 55.2949C49.599 55.0215 49.0911 54.6439 48.668 54.1621C48.2513 53.6738 47.9323 53.1042 47.7109 52.4531C47.4896 51.8021 47.3789 51.0957 47.3789 50.334ZM49.1855 50.1094V50.334C49.1855 50.8613 49.2474 51.3594 49.3711 51.8281C49.4948 52.2904 49.6803 52.7005 49.9277 53.0586C50.1816 53.4167 50.4974 53.6999 50.875 53.9082C51.2526 54.11 51.6921 54.2109 52.1934 54.2109C52.6882 54.2109 53.1211 54.11 53.4922 53.9082C53.8698 53.6999 54.1823 53.4167 54.4297 53.0586C54.6771 52.7005 54.8626 52.2904 54.9863 51.8281C55.1165 51.3594 55.1816 50.8613 55.1816 50.334V50.1094C55.1816 49.5885 55.1165 49.097 54.9863 48.6348C54.8626 48.166 54.6738 47.7526 54.4199 47.3945C54.1725 47.0299 53.86 46.7435 53.4824 46.5352C53.1113 46.3268 52.6751 46.2227 52.1738 46.2227C51.679 46.2227 51.2428 46.3268 50.8652 46.5352C50.4941 46.7435 50.1816 47.0299 49.9277 47.3945C49.6803 47.7526 49.4948 48.166 49.3711 48.6348C49.2474 49.097 49.1855 49.5885 49.1855 50.1094ZM61.2266 44.9336V55.5H59.4199V44.9336H61.2266ZM68.1602 44.9336L63.1504 50.9883H60.6211L60.3477 49.4062H62.418L65.9629 44.9336H68.1602ZM66.2168 55.5L62.3301 50.7148L63.4922 49.4062L68.5117 55.5H66.2168Z" fill="#B672FF"/>
<path d="M34 57.4531H68.6973V58.4297H34V57.4531Z" fill="#B672FF"/>
<path d="M36.8711 93.2812L40.2891 98.7305L43.707 93.2812H45.9043L41.4121 100.322L46.0117 107.5H43.7949L40.2891 101.943L36.7832 107.5H34.5664L39.166 100.322L34.6738 93.2812H36.8711ZM49.8691 104.639L54.7422 96.9336H56.5586V107.5H54.7422V99.7949L49.8691 107.5H48.0723V96.9336H49.8691V104.639ZM66.5 96.9336V98.4277H61.1582V96.9336H66.5ZM61.4219 96.9336V107.5H59.6152V96.9336H61.4219ZM68.1016 96.9336V107.5H66.2852V96.9336H68.1016ZM74.7617 100.713V102.197H69.9961V100.713H74.7617ZM77.75 96.9336L80.0645 100.781L82.4082 96.9336H84.5273L81.0703 102.148L84.6348 107.5H82.5449L80.1035 103.535L77.6621 107.5H75.5625L79.1172 102.148L75.6699 96.9336H77.75ZM85.7773 102.334V102.109C85.7773 101.348 85.888 100.641 86.1094 99.9902C86.3307 99.3327 86.6497 98.763 87.0664 98.2812C87.4831 97.793 87.9876 97.4154 88.5801 97.1484C89.1725 96.875 89.8366 96.7383 90.5723 96.7383C91.3145 96.7383 91.9818 96.875 92.5742 97.1484C93.1732 97.4154 93.681 97.793 94.0977 98.2812C94.5208 98.763 94.8431 99.3327 95.0645 99.9902C95.2858 100.641 95.3965 101.348 95.3965 102.109V102.334C95.3965 103.096 95.2858 103.802 95.0645 104.453C94.8431 105.104 94.5208 105.674 94.0977 106.162C93.681 106.644 93.1764 107.021 92.584 107.295C91.998 107.562 91.334 107.695 90.5918 107.695C89.8496 107.695 89.1823 107.562 88.5898 107.295C87.9974 107.021 87.4896 106.644 87.0664 106.162C86.6497 105.674 86.3307 105.104 86.1094 104.453C85.888 103.802 85.7773 103.096 85.7773 102.334ZM87.584 102.109V102.334C87.584 102.861 87.6458 103.359 87.7695 103.828C87.8932 104.29 88.0788 104.701 88.3262 105.059C88.5801 105.417 88.8958 105.7 89.2734 105.908C89.651 106.11 90.0905 106.211 90.5918 106.211C91.0866 106.211 91.5195 106.11 91.8906 105.908C92.2682 105.7 92.5807 105.417 92.8281 105.059C93.0755 104.701 93.2611 104.29 93.3848 103.828C93.515 103.359 93.5801 102.861 93.5801 102.334V102.109C93.5801 101.589 93.515 101.097 93.3848 100.635C93.2611 100.166 93.0723 99.7526 92.8184 99.3945C92.571 99.0299 92.2585 98.7435 91.8809 98.5352C91.5098 98.3268 91.0736 98.2227 90.5723 98.2227C90.0775 98.2227 89.6413 98.3268 89.2637 98.5352C88.8926 98.7435 88.5801 99.0299 88.3262 99.3945C88.0788 99.7526 87.8932 100.166 87.7695 100.635C87.6458 101.097 87.584 101.589 87.584 102.109ZM104.703 96.9336V98.4277H99.3613V96.9336H104.703ZM99.625 96.9336V107.5H97.8184V96.9336H99.625ZM106.305 96.9336V107.5H104.488V96.9336H106.305Z" fill="white"/>
<path d="M46.5098 145.281V159.5H44.6348V146.824H37.623V159.5H35.7383V145.281H46.5098ZM49.1758 154.334V154.109C49.1758 153.348 49.2865 152.641 49.5078 151.99C49.7292 151.333 50.0482 150.763 50.4648 150.281C50.8815 149.793 51.3861 149.415 51.9785 149.148C52.571 148.875 53.235 148.738 53.9707 148.738C54.7129 148.738 55.3802 148.875 55.9727 149.148C56.5716 149.415 57.0794 149.793 57.4961 150.281C57.9193 150.763 58.2415 151.333 58.4629 151.99C58.6842 152.641 58.7949 153.348 58.7949 154.109V154.334C58.7949 155.096 58.6842 155.802 58.4629 156.453C58.2415 157.104 57.9193 157.674 57.4961 158.162C57.0794 158.644 56.5749 159.021 55.9824 159.295C55.3965 159.562 54.7324 159.695 53.9902 159.695C53.248 159.695 52.5807 159.562 51.9883 159.295C51.3958 159.021 50.888 158.644 50.4648 158.162C50.0482 157.674 49.7292 157.104 49.5078 156.453C49.2865 155.802 49.1758 155.096 49.1758 154.334ZM50.9824 154.109V154.334C50.9824 154.861 51.0443 155.359 51.168 155.828C51.2917 156.29 51.4772 156.701 51.7246 157.059C51.9785 157.417 52.2943 157.7 52.6719 157.908C53.0495 158.11 53.4889 158.211 53.9902 158.211C54.485 158.211 54.918 158.11 55.2891 157.908C55.6667 157.7 55.9792 157.417 56.2266 157.059C56.474 156.701 56.6595 156.29 56.7832 155.828C56.9134 155.359 56.9785 154.861 56.9785 154.334V154.109C56.9785 153.589 56.9134 153.097 56.7832 152.635C56.6595 152.166 56.4707 151.753 56.2168 151.395C55.9694 151.03 55.6569 150.743 55.2793 150.535C54.9082 150.327 54.472 150.223 53.9707 150.223C53.4759 150.223 53.0397 150.327 52.6621 150.535C52.291 150.743 51.9785 151.03 51.7246 151.395C51.4772 151.753 51.2917 152.166 51.168 152.635C51.0443 153.097 50.9824 153.589 50.9824 154.109ZM68.1016 148.934V150.428H62.7598V148.934H68.1016ZM63.0234 148.934V159.5H61.2168V148.934H63.0234ZM69.7031 148.934V159.5H67.8867V148.934H69.7031ZM76.3633 152.713V154.197H71.5977V152.713H76.3633ZM84.2051 157.098L87.7988 148.934H89.5371L84.8301 159.5H83.5801L78.8926 148.934H80.6309L84.2051 157.098ZM80.1035 148.934V159.5H78.2969V148.934H80.1035ZM88.248 159.5V148.934H90.0645V159.5H88.248ZM95.9434 158.406L98.8828 148.934H100.816L96.5781 161.131C96.4805 161.391 96.3503 161.671 96.1875 161.971C96.0312 162.277 95.8294 162.566 95.582 162.84C95.3346 163.113 95.0352 163.335 94.6836 163.504C94.3385 163.68 93.9251 163.768 93.4434 163.768C93.3001 163.768 93.1178 163.748 92.8965 163.709C92.6751 163.67 92.5189 163.637 92.4277 163.611L92.418 162.146C92.4701 162.153 92.5514 162.16 92.6621 162.166C92.7793 162.179 92.8607 162.186 92.9062 162.186C93.3164 162.186 93.6647 162.13 93.9512 162.02C94.2376 161.915 94.4785 161.736 94.6738 161.482C94.8757 161.235 95.0482 160.893 95.1914 160.457L95.9434 158.406ZM93.7852 148.934L96.5293 157.137L96.998 159.041L95.6992 159.705L91.8125 148.934H93.7852ZM106.393 154.451H104.449V153.338H106.246C106.747 153.338 107.145 153.276 107.438 153.152C107.73 153.022 107.939 152.843 108.062 152.615C108.186 152.387 108.248 152.12 108.248 151.814C108.248 151.541 108.176 151.284 108.033 151.043C107.896 150.796 107.675 150.597 107.369 150.447C107.063 150.291 106.653 150.213 106.139 150.213C105.722 150.213 105.344 150.288 105.006 150.438C104.667 150.581 104.397 150.779 104.195 151.033C104 151.281 103.902 151.561 103.902 151.873H102.096C102.096 151.229 102.278 150.675 102.643 150.213C103.014 149.744 103.505 149.383 104.117 149.129C104.736 148.875 105.41 148.748 106.139 148.748C106.751 148.748 107.298 148.816 107.779 148.953C108.268 149.083 108.681 149.279 109.02 149.539C109.358 149.793 109.615 150.112 109.791 150.496C109.973 150.874 110.064 151.313 110.064 151.814C110.064 152.173 109.98 152.511 109.811 152.83C109.641 153.149 109.397 153.432 109.078 153.68C108.759 153.921 108.372 154.109 107.916 154.246C107.467 154.383 106.959 154.451 106.393 154.451ZM104.449 153.768H106.393C107.024 153.768 107.581 153.829 108.062 153.953C108.544 154.07 108.948 154.246 109.273 154.48C109.599 154.715 109.843 155.005 110.006 155.35C110.175 155.688 110.26 156.079 110.26 156.521C110.26 157.016 110.159 157.462 109.957 157.859C109.762 158.25 109.482 158.582 109.117 158.855C108.753 159.129 108.316 159.337 107.809 159.48C107.307 159.624 106.751 159.695 106.139 159.695C105.455 159.695 104.791 159.578 104.146 159.344C103.502 159.109 102.971 158.748 102.555 158.26C102.138 157.765 101.93 157.137 101.93 156.375H103.736C103.736 156.694 103.837 156.997 104.039 157.283C104.241 157.57 104.521 157.801 104.879 157.977C105.243 158.152 105.663 158.24 106.139 158.24C106.646 158.24 107.07 158.162 107.408 158.006C107.747 157.85 108.001 157.641 108.17 157.381C108.346 157.12 108.434 156.837 108.434 156.531C108.434 156.134 108.355 155.815 108.199 155.574C108.043 155.333 107.802 155.158 107.477 155.047C107.158 154.93 106.747 154.871 106.246 154.871H104.449V153.768ZM114.088 152.566H117.262C118.115 152.566 118.834 152.716 119.42 153.016C120.006 153.309 120.449 153.715 120.748 154.236C121.054 154.751 121.207 155.337 121.207 155.994C121.207 156.482 121.122 156.941 120.953 157.371C120.784 157.794 120.53 158.165 120.191 158.484C119.859 158.803 119.446 159.054 118.951 159.236C118.463 159.412 117.9 159.5 117.262 159.5H112.77V148.934H114.576V158.016H117.262C117.783 158.016 118.199 157.921 118.512 157.732C118.824 157.544 119.049 157.299 119.186 157C119.322 156.701 119.391 156.388 119.391 156.062C119.391 155.743 119.322 155.431 119.186 155.125C119.049 154.819 118.824 154.565 118.512 154.363C118.199 154.155 117.783 154.051 117.262 154.051H114.088V152.566ZM124.967 148.934V159.5H123.16V148.934H124.967ZM130.094 148.934V159.5H128.287V148.934H130.094ZM137.027 148.934L132.018 154.988H129.488L129.215 153.406H131.285L134.83 148.934H137.027ZM135.084 159.5L131.197 154.715L132.359 153.406L137.379 159.5H135.084ZM145.182 157.693V152.254C145.182 151.837 145.097 151.476 144.928 151.17C144.765 150.857 144.518 150.617 144.186 150.447C143.854 150.278 143.443 150.193 142.955 150.193C142.499 150.193 142.099 150.271 141.754 150.428C141.415 150.584 141.148 150.789 140.953 151.043C140.764 151.297 140.67 151.57 140.67 151.863H138.863C138.863 151.486 138.961 151.111 139.156 150.74C139.352 150.369 139.632 150.034 139.996 149.734C140.367 149.428 140.81 149.188 141.324 149.012C141.845 148.829 142.424 148.738 143.062 148.738C143.831 148.738 144.508 148.868 145.094 149.129C145.686 149.389 146.148 149.783 146.48 150.311C146.819 150.831 146.988 151.486 146.988 152.273V157.195C146.988 157.547 147.018 157.921 147.076 158.318C147.141 158.715 147.236 159.057 147.359 159.344V159.5H145.475C145.383 159.292 145.312 159.015 145.26 158.67C145.208 158.318 145.182 157.993 145.182 157.693ZM145.494 153.094L145.514 154.363H143.688C143.173 154.363 142.714 154.406 142.311 154.49C141.907 154.568 141.568 154.689 141.295 154.852C141.021 155.014 140.813 155.219 140.67 155.467C140.527 155.708 140.455 155.991 140.455 156.316C140.455 156.648 140.53 156.951 140.68 157.225C140.829 157.498 141.054 157.716 141.354 157.879C141.66 158.035 142.034 158.113 142.477 158.113C143.03 158.113 143.518 157.996 143.941 157.762C144.365 157.527 144.7 157.241 144.947 156.902C145.201 156.564 145.338 156.235 145.357 155.916L146.129 156.785C146.083 157.059 145.96 157.361 145.758 157.693C145.556 158.025 145.286 158.344 144.947 158.65C144.615 158.95 144.218 159.201 143.756 159.402C143.3 159.598 142.786 159.695 142.213 159.695C141.497 159.695 140.868 159.555 140.328 159.275C139.794 158.995 139.378 158.621 139.078 158.152C138.785 157.677 138.639 157.146 138.639 156.561C138.639 155.994 138.749 155.496 138.971 155.066C139.192 154.63 139.511 154.269 139.928 153.982C140.344 153.689 140.846 153.468 141.432 153.318C142.018 153.169 142.672 153.094 143.395 153.094H145.494Z" fill="white"/>
<path d="M40.9043 197.281V211.5H39.0488V197.281H40.9043ZM45.4746 197.281V198.824H34.4883V197.281H45.4746ZM50.7188 211.695C49.9831 211.695 49.3158 211.572 48.7168 211.324C48.1243 211.07 47.6133 210.715 47.1836 210.26C46.7604 209.804 46.4349 209.264 46.207 208.639C45.9792 208.014 45.8652 207.33 45.8652 206.588V206.178C45.8652 205.318 45.9922 204.553 46.2461 203.883C46.5 203.206 46.8451 202.633 47.2812 202.164C47.7174 201.695 48.2122 201.34 48.7656 201.1C49.319 200.859 49.8919 200.738 50.4844 200.738C51.2396 200.738 51.8906 200.868 52.4375 201.129C52.9909 201.389 53.4434 201.754 53.7949 202.223C54.1465 202.685 54.4069 203.232 54.5762 203.863C54.7454 204.488 54.8301 205.172 54.8301 205.914V206.725H46.9395V205.25H53.0234V205.113C52.9974 204.645 52.8997 204.189 52.7305 203.746C52.5677 203.303 52.3073 202.939 51.9492 202.652C51.5911 202.366 51.1029 202.223 50.4844 202.223C50.0742 202.223 49.6966 202.311 49.3516 202.486C49.0065 202.656 48.7103 202.91 48.4629 203.248C48.2155 203.587 48.0234 204 47.8867 204.488C47.75 204.977 47.6816 205.54 47.6816 206.178V206.588C47.6816 207.089 47.75 207.561 47.8867 208.004C48.0299 208.44 48.235 208.824 48.502 209.156C48.7754 209.488 49.1042 209.749 49.4883 209.938C49.8789 210.126 50.3216 210.221 50.8164 210.221C51.4544 210.221 51.9948 210.09 52.4375 209.83C52.8802 209.57 53.2676 209.221 53.5996 208.785L54.6934 209.654C54.4655 209.999 54.1758 210.328 53.8242 210.641C53.4727 210.953 53.0397 211.207 52.5254 211.402C52.0176 211.598 51.4154 211.695 50.7188 211.695ZM58.1602 200.934L60.4746 204.781L62.8184 200.934H64.9375L61.4805 206.148L65.0449 211.5H62.9551L60.5137 207.535L58.0723 211.5H55.9727L59.5273 206.148L56.0801 200.934H58.1602ZM74.0293 205.514V206.979H68.4434V205.514H74.0293ZM68.8242 200.934V211.5H67.0176V200.934H68.8242ZM75.4941 200.934V211.5H73.6777V200.934H75.4941ZM77.9258 206.334V206.109C77.9258 205.348 78.0365 204.641 78.2578 203.99C78.4792 203.333 78.7982 202.763 79.2148 202.281C79.6315 201.793 80.1361 201.415 80.7285 201.148C81.321 200.875 81.985 200.738 82.7207 200.738C83.4629 200.738 84.1302 200.875 84.7227 201.148C85.3216 201.415 85.8294 201.793 86.2461 202.281C86.6693 202.763 86.9915 203.333 87.2129 203.99C87.4342 204.641 87.5449 205.348 87.5449 206.109V206.334C87.5449 207.096 87.4342 207.802 87.2129 208.453C86.9915 209.104 86.6693 209.674 86.2461 210.162C85.8294 210.644 85.3249 211.021 84.7324 211.295C84.1465 211.562 83.4824 211.695 82.7402 211.695C81.998 211.695 81.3307 211.562 80.7383 211.295C80.1458 211.021 79.638 210.644 79.2148 210.162C78.7982 209.674 78.4792 209.104 78.2578 208.453C78.0365 207.802 77.9258 207.096 77.9258 206.334ZM79.7324 206.109V206.334C79.7324 206.861 79.7943 207.359 79.918 207.828C80.0417 208.29 80.2272 208.701 80.4746 209.059C80.7285 209.417 81.0443 209.7 81.4219 209.908C81.7995 210.11 82.2389 210.211 82.7402 210.211C83.235 210.211 83.668 210.11 84.0391 209.908C84.4167 209.7 84.7292 209.417 84.9766 209.059C85.224 208.701 85.4095 208.29 85.5332 207.828C85.6634 207.359 85.7285 206.861 85.7285 206.334V206.109C85.7285 205.589 85.6634 205.097 85.5332 204.635C85.4095 204.166 85.2207 203.753 84.9668 203.395C84.7194 203.03 84.4069 202.743 84.0293 202.535C83.6582 202.327 83.222 202.223 82.7207 202.223C82.2259 202.223 81.7897 202.327 81.4121 202.535C81.041 202.743 80.7285 203.03 80.4746 203.395C80.2272 203.753 80.0417 204.166 79.918 204.635C79.7943 205.097 79.7324 205.589 79.7324 206.109Z" fill="white"/>
<path d="M37.6133 260.238L44.6152 249.281H46.5V263.5H44.6152V252.533L37.6133 263.5H35.7383V249.281H37.6133V260.238ZM56.8223 257.514V258.979H51.2363V257.514H56.8223ZM51.6172 252.934V263.5H49.8105V252.934H51.6172ZM58.2871 252.934V263.5H56.4707V252.934H58.2871ZM63.1016 252.934H64.9082L64.752 256.889C64.7129 257.891 64.599 258.757 64.4102 259.486C64.2214 260.215 63.9805 260.837 63.6875 261.352C63.3945 261.859 63.0658 262.286 62.7012 262.631C62.3431 262.976 61.972 263.266 61.5879 263.5H60.6895L60.7383 262.025L61.1094 262.016C61.3242 261.762 61.5326 261.501 61.7344 261.234C61.9362 260.961 62.1217 260.639 62.291 260.268C62.4603 259.89 62.6003 259.431 62.7109 258.891C62.8281 258.344 62.903 257.676 62.9355 256.889L63.1016 252.934ZM63.5508 252.934H69.9082V263.5H68.1016V254.604H63.5508V252.934ZM60.2793 262.016H71.2656V266.615H69.459V263.5H62.0859V266.615H60.2695L60.2793 262.016ZM75.2207 260.639L80.0938 252.934H81.9102V263.5H80.0938V255.795L75.2207 263.5H73.4238V252.934H75.2207V260.639Z" fill="white"/>
<rect x="212" y="34" width="4" height="237" rx="2" fill="#4B4949"/>
<rect x="212" y="34" width="4" height="65" rx="2" fill="white"/>
</svg>
